<mxfile host="app.diagrams.net" modified="2022-09-23T09:29:13.580Z" agent="5.0 (Windows NT 10.0; Win64; x64) AppleWebKit/537.36 (KHTML, like Gecko) Chrome/104.0.0.0 Safari/537.36" etag="2gKgw3eLvvBSQSN4AZ1a" version="20.3.3" type="github">
  <diagram id="n53V0-UhPjgtem-jmb5G" name="第 1 页">
    <mxGraphModel dx="1431" dy="789" grid="1" gridSize="10" guides="1" tooltips="1" connect="1" arrows="1" fold="1" page="1" pageScale="1" pageWidth="827" pageHeight="1169" math="0" shadow="0">
      <root>
        <mxCell id="0" />
        <mxCell id="1" parent="0" />
        <mxCell id="-kGAtnwoqszsTnGILX-w-26" value="工单系统web端" style="swimlane;childLayout=stackLayout;resizeParent=1;resizeParentMax=0;horizontal=1;startSize=20;horizontalStack=0;fillColor=none;gradientColor=none;fontStyle=1;fontSize=17;" parent="1" vertex="1">
          <mxGeometry x="10" y="70" width="370" height="4020" as="geometry">
            <mxRectangle x="10" y="70" width="160" height="30" as="alternateBounds" />
          </mxGeometry>
        </mxCell>
        <mxCell id="-kGAtnwoqszsTnGILX-w-27" value="提交发版工单" style="swimlane;startSize=20;horizontal=0;fillColor=none;gradientColor=none;fontSize=16;fontStyle=0" parent="-kGAtnwoqszsTnGILX-w-26" vertex="1">
          <mxGeometry y="20" width="370" height="260" as="geometry" />
        </mxCell>
        <mxCell id="-kGAtnwoqszsTnGILX-w-62" value="提交保存工单" style="rounded=1;whiteSpace=wrap;html=1;fillColor=none;gradientColor=none;" parent="-kGAtnwoqszsTnGILX-w-27" vertex="1">
          <mxGeometry x="150" y="105" width="110" height="50" as="geometry" />
        </mxCell>
        <mxCell id="-kGAtnwoqszsTnGILX-w-72" style="edgeStyle=orthogonalEdgeStyle;rounded=0;orthogonalLoop=1;jettySize=auto;html=1;entryX=0.5;entryY=0;entryDx=0;entryDy=0;" parent="-kGAtnwoqszsTnGILX-w-27" source="-kGAtnwoqszsTnGILX-w-70" target="-kGAtnwoqszsTnGILX-w-62" edge="1">
          <mxGeometry relative="1" as="geometry" />
        </mxCell>
        <mxCell id="-kGAtnwoqszsTnGILX-w-70" value="提交人录入工单信息" style="rounded=1;whiteSpace=wrap;html=1;fillColor=none;gradientColor=none;" parent="-kGAtnwoqszsTnGILX-w-27" vertex="1">
          <mxGeometry x="150" y="20" width="110" height="50" as="geometry" />
        </mxCell>
        <mxCell id="-kGAtnwoqszsTnGILX-w-104" value="提交结束" style="strokeWidth=1;html=1;shape=mxgraph.flowchart.start_1;whiteSpace=wrap;strokeColor=#432D57;fillColor=#76608a;fontColor=#ffffff;" parent="-kGAtnwoqszsTnGILX-w-27" vertex="1">
          <mxGeometry x="32.5" y="190" width="87" height="55" as="geometry" />
        </mxCell>
        <mxCell id="gG1rawxMJscciwoJlw1L-44" style="edgeStyle=orthogonalEdgeStyle;rounded=0;orthogonalLoop=1;jettySize=auto;html=1;entryX=0;entryY=0.5;entryDx=0;entryDy=0;" edge="1" parent="-kGAtnwoqszsTnGILX-w-27" source="-kGAtnwoqszsTnGILX-w-105" target="-kGAtnwoqszsTnGILX-w-70">
          <mxGeometry relative="1" as="geometry" />
        </mxCell>
        <mxCell id="-kGAtnwoqszsTnGILX-w-105" value="开始提交" style="ellipse;whiteSpace=wrap;html=1;strokeColor=#36393d;strokeWidth=1;fillColor=#cdeb8b;" parent="-kGAtnwoqszsTnGILX-w-27" vertex="1">
          <mxGeometry x="32.5" y="20" width="87" height="50" as="geometry" />
        </mxCell>
        <mxCell id="-kGAtnwoqszsTnGILX-w-28" value="发版审核" style="swimlane;startSize=20;horizontal=0;fillColor=none;gradientColor=none;fontSize=16;fontStyle=0" parent="-kGAtnwoqszsTnGILX-w-26" vertex="1">
          <mxGeometry y="280" width="370" height="320" as="geometry" />
        </mxCell>
        <mxCell id="-kGAtnwoqszsTnGILX-w-99" style="edgeStyle=orthogonalEdgeStyle;rounded=0;orthogonalLoop=1;jettySize=auto;html=1;" parent="-kGAtnwoqszsTnGILX-w-28" source="-kGAtnwoqszsTnGILX-w-97" target="-kGAtnwoqszsTnGILX-w-98" edge="1">
          <mxGeometry relative="1" as="geometry" />
        </mxCell>
        <mxCell id="-kGAtnwoqszsTnGILX-w-97" value="审核人打开&lt;br&gt;待审核工单" style="rounded=1;whiteSpace=wrap;html=1;fillColor=none;gradientColor=none;" parent="-kGAtnwoqszsTnGILX-w-28" vertex="1">
          <mxGeometry x="150" y="25" width="110" height="40" as="geometry" />
        </mxCell>
        <mxCell id="-kGAtnwoqszsTnGILX-w-98" value="工单审核通过" style="strokeWidth=1;html=1;shape=mxgraph.flowchart.decision;whiteSpace=wrap;fillColor=none;gradientColor=none;strokeColor=default;" parent="-kGAtnwoqszsTnGILX-w-28" vertex="1">
          <mxGeometry x="170" y="100" width="70" height="70" as="geometry" />
        </mxCell>
        <mxCell id="gG1rawxMJscciwoJlw1L-43" style="edgeStyle=orthogonalEdgeStyle;rounded=0;orthogonalLoop=1;jettySize=auto;html=1;entryX=0;entryY=0.5;entryDx=0;entryDy=0;" edge="1" parent="-kGAtnwoqszsTnGILX-w-28" source="-kGAtnwoqszsTnGILX-w-109" target="-kGAtnwoqszsTnGILX-w-97">
          <mxGeometry relative="1" as="geometry" />
        </mxCell>
        <mxCell id="-kGAtnwoqszsTnGILX-w-109" value="开始" style="ellipse;whiteSpace=wrap;html=1;strokeColor=#36393d;strokeWidth=1;fillColor=#cdeb8b;" parent="-kGAtnwoqszsTnGILX-w-28" vertex="1">
          <mxGeometry x="31" y="20" width="87" height="50" as="geometry" />
        </mxCell>
        <mxCell id="-kGAtnwoqszsTnGILX-w-111" value="审核结束" style="strokeWidth=1;html=1;shape=mxgraph.flowchart.start_1;whiteSpace=wrap;strokeColor=#432D57;fillColor=#76608a;fontColor=#ffffff;" parent="-kGAtnwoqszsTnGILX-w-28" vertex="1">
          <mxGeometry x="31" y="260" width="87" height="55" as="geometry" />
        </mxCell>
        <mxCell id="-kGAtnwoqszsTnGILX-w-29" value="执行发版" style="swimlane;startSize=20;horizontal=0;fillColor=none;gradientColor=none;fontSize=16;fontStyle=0" parent="-kGAtnwoqszsTnGILX-w-26" vertex="1">
          <mxGeometry y="600" width="370" height="670" as="geometry" />
        </mxCell>
        <mxCell id="-kGAtnwoqszsTnGILX-w-30" value="发版复核" style="swimlane;startSize=20;horizontal=0;fillColor=none;gradientColor=none;fontStyle=0;fontSize=16;" parent="-kGAtnwoqszsTnGILX-w-26" vertex="1">
          <mxGeometry y="1270" width="370" height="570" as="geometry">
            <mxRectangle y="1380" width="370" height="30" as="alternateBounds" />
          </mxGeometry>
        </mxCell>
        <mxCell id="gG1rawxMJscciwoJlw1L-47" style="edgeStyle=orthogonalEdgeStyle;rounded=0;orthogonalLoop=1;jettySize=auto;html=1;entryX=0;entryY=0.5;entryDx=0;entryDy=0;" edge="1" parent="-kGAtnwoqszsTnGILX-w-30" source="-kGAtnwoqszsTnGILX-w-246" target="-kGAtnwoqszsTnGILX-w-247">
          <mxGeometry relative="1" as="geometry" />
        </mxCell>
        <mxCell id="-kGAtnwoqszsTnGILX-w-246" value="开始" style="ellipse;whiteSpace=wrap;html=1;strokeColor=#36393d;strokeWidth=1;fillColor=#cdeb8b;" parent="-kGAtnwoqszsTnGILX-w-30" vertex="1">
          <mxGeometry x="30" y="25" width="87" height="50" as="geometry" />
        </mxCell>
        <mxCell id="gG1rawxMJscciwoJlw1L-48" style="edgeStyle=orthogonalEdgeStyle;rounded=0;orthogonalLoop=1;jettySize=auto;html=1;exitX=0.5;exitY=1;exitDx=0;exitDy=0;entryX=0.5;entryY=0;entryDx=0;entryDy=0;" edge="1" parent="-kGAtnwoqszsTnGILX-w-30" source="-kGAtnwoqszsTnGILX-w-247" target="-kGAtnwoqszsTnGILX-w-249">
          <mxGeometry relative="1" as="geometry" />
        </mxCell>
        <mxCell id="-kGAtnwoqszsTnGILX-w-247" value="复核人&lt;br&gt;进行复核操作" style="rounded=1;whiteSpace=wrap;html=1;strokeColor=default;strokeWidth=1;fontSize=16;fillColor=none;gradientColor=none;" parent="-kGAtnwoqszsTnGILX-w-30" vertex="1">
          <mxGeometry x="177" y="20" width="120" height="60" as="geometry" />
        </mxCell>
        <mxCell id="-kGAtnwoqszsTnGILX-w-249" value="是否发版复核通过" style="rhombus;whiteSpace=wrap;html=1;strokeColor=default;strokeWidth=1;fontSize=16;fillColor=none;gradientColor=none;" parent="-kGAtnwoqszsTnGILX-w-30" vertex="1">
          <mxGeometry x="197" y="100" width="80" height="80" as="geometry" />
        </mxCell>
        <mxCell id="-kGAtnwoqszsTnGILX-w-257" value="复核结束" style="strokeWidth=1;html=1;shape=mxgraph.flowchart.start_1;whiteSpace=wrap;strokeColor=#432D57;fillColor=#76608a;fontColor=#ffffff;" parent="-kGAtnwoqszsTnGILX-w-30" vertex="1">
          <mxGeometry x="50" y="480" width="87" height="55" as="geometry" />
        </mxCell>
        <mxCell id="-kGAtnwoqszsTnGILX-w-267" value="是否强制发版复核通过" style="rhombus;whiteSpace=wrap;html=1;strokeColor=#36393d;strokeWidth=1;fontSize=16;fillColor=#ffff88;" parent="-kGAtnwoqszsTnGILX-w-30" vertex="1">
          <mxGeometry x="197" y="280" width="80" height="80" as="geometry" />
        </mxCell>
        <mxCell id="-kGAtnwoqszsTnGILX-w-281" value="上线申请" style="swimlane;startSize=20;horizontal=0;fillColor=none;gradientColor=none;fontStyle=0;fontSize=16;" parent="-kGAtnwoqszsTnGILX-w-26" vertex="1">
          <mxGeometry y="1840" width="370" height="380" as="geometry" />
        </mxCell>
        <mxCell id="gG1rawxMJscciwoJlw1L-30" value="" style="edgeStyle=orthogonalEdgeStyle;rounded=0;orthogonalLoop=1;jettySize=auto;html=1;" edge="1" parent="-kGAtnwoqszsTnGILX-w-281" source="gG1rawxMJscciwoJlw1L-27" target="gG1rawxMJscciwoJlw1L-29">
          <mxGeometry relative="1" as="geometry" />
        </mxCell>
        <mxCell id="gG1rawxMJscciwoJlw1L-27" value="开始" style="ellipse;whiteSpace=wrap;html=1;strokeColor=#36393d;strokeWidth=1;fillColor=#cdeb8b;" vertex="1" parent="-kGAtnwoqszsTnGILX-w-281">
          <mxGeometry x="30" y="30" width="87" height="50" as="geometry" />
        </mxCell>
        <mxCell id="gG1rawxMJscciwoJlw1L-29" value="申请人提交上线申请" style="rounded=1;whiteSpace=wrap;html=1;strokeWidth=1;" vertex="1" parent="-kGAtnwoqszsTnGILX-w-281">
          <mxGeometry x="170" y="25" width="120" height="60" as="geometry" />
        </mxCell>
        <mxCell id="gG1rawxMJscciwoJlw1L-39" value="是否强制上线" style="rhombus;whiteSpace=wrap;html=1;strokeColor=#36393d;strokeWidth=1;fontSize=16;fillColor=#ffff88;" vertex="1" parent="-kGAtnwoqszsTnGILX-w-281">
          <mxGeometry x="190" y="200" width="80" height="80" as="geometry" />
        </mxCell>
        <mxCell id="gG1rawxMJscciwoJlw1L-42" value="结束" style="strokeWidth=1;html=1;shape=mxgraph.flowchart.start_1;whiteSpace=wrap;strokeColor=#432D57;fillColor=#76608a;fontColor=#ffffff;" vertex="1" parent="-kGAtnwoqszsTnGILX-w-281">
          <mxGeometry x="30" y="307" width="87" height="55" as="geometry" />
        </mxCell>
        <mxCell id="-kGAtnwoqszsTnGILX-w-282" value="上线审核" style="swimlane;startSize=20;horizontal=0;fillColor=none;gradientColor=none;fontStyle=0;fontSize=16;" parent="-kGAtnwoqszsTnGILX-w-26" vertex="1">
          <mxGeometry y="2220" width="370" height="350" as="geometry" />
        </mxCell>
        <mxCell id="gG1rawxMJscciwoJlw1L-57" style="edgeStyle=orthogonalEdgeStyle;rounded=0;orthogonalLoop=1;jettySize=auto;html=1;entryX=0.5;entryY=0;entryDx=0;entryDy=0;entryPerimeter=0;" edge="1" parent="-kGAtnwoqszsTnGILX-w-282" source="gG1rawxMJscciwoJlw1L-53" target="gG1rawxMJscciwoJlw1L-54">
          <mxGeometry relative="1" as="geometry" />
        </mxCell>
        <mxCell id="gG1rawxMJscciwoJlw1L-53" value="审核人打开&lt;br&gt;待审核的上线工单" style="rounded=1;whiteSpace=wrap;html=1;fillColor=none;gradientColor=none;" vertex="1" parent="-kGAtnwoqszsTnGILX-w-282">
          <mxGeometry x="160" y="25" width="110" height="40" as="geometry" />
        </mxCell>
        <mxCell id="gG1rawxMJscciwoJlw1L-54" value="审核通过" style="strokeWidth=1;html=1;shape=mxgraph.flowchart.decision;whiteSpace=wrap;fillColor=none;gradientColor=none;strokeColor=default;" vertex="1" parent="-kGAtnwoqszsTnGILX-w-282">
          <mxGeometry x="180" y="100" width="70" height="70" as="geometry" />
        </mxCell>
        <mxCell id="gG1rawxMJscciwoJlw1L-56" style="edgeStyle=orthogonalEdgeStyle;rounded=0;orthogonalLoop=1;jettySize=auto;html=1;entryX=0;entryY=0.5;entryDx=0;entryDy=0;" edge="1" parent="-kGAtnwoqszsTnGILX-w-282" source="gG1rawxMJscciwoJlw1L-55" target="gG1rawxMJscciwoJlw1L-53">
          <mxGeometry relative="1" as="geometry" />
        </mxCell>
        <mxCell id="gG1rawxMJscciwoJlw1L-55" value="开始" style="ellipse;whiteSpace=wrap;html=1;strokeColor=#36393d;strokeWidth=1;fillColor=#cdeb8b;" vertex="1" parent="-kGAtnwoqszsTnGILX-w-282">
          <mxGeometry x="41" y="20" width="87" height="50" as="geometry" />
        </mxCell>
        <mxCell id="gG1rawxMJscciwoJlw1L-64" value="结束" style="strokeWidth=1;html=1;shape=mxgraph.flowchart.start_1;whiteSpace=wrap;strokeColor=#432D57;fillColor=#76608a;fontColor=#ffffff;" vertex="1" parent="-kGAtnwoqszsTnGILX-w-282">
          <mxGeometry x="41" y="267.5" width="87" height="55" as="geometry" />
        </mxCell>
        <mxCell id="gG1rawxMJscciwoJlw1L-75" value="执行上线" style="swimlane;startSize=20;horizontal=0;fillColor=none;gradientColor=none;fontStyle=0;fontSize=16;" vertex="1" parent="-kGAtnwoqszsTnGILX-w-26">
          <mxGeometry y="2570" width="370" height="420" as="geometry" />
        </mxCell>
        <mxCell id="gG1rawxMJscciwoJlw1L-100" value="提交上线回滚" style="swimlane;startSize=20;horizontal=0;fillColor=none;gradientColor=none;fontStyle=0;fontSize=16;" vertex="1" parent="-kGAtnwoqszsTnGILX-w-26">
          <mxGeometry y="2990" width="370" height="230" as="geometry" />
        </mxCell>
        <mxCell id="gG1rawxMJscciwoJlw1L-109" style="edgeStyle=orthogonalEdgeStyle;rounded=0;orthogonalLoop=1;jettySize=auto;html=1;entryX=0;entryY=0.5;entryDx=0;entryDy=0;" edge="1" parent="gG1rawxMJscciwoJlw1L-100" source="gG1rawxMJscciwoJlw1L-106" target="gG1rawxMJscciwoJlw1L-107">
          <mxGeometry relative="1" as="geometry" />
        </mxCell>
        <mxCell id="gG1rawxMJscciwoJlw1L-106" value="开始" style="ellipse;whiteSpace=wrap;html=1;strokeColor=#36393d;strokeWidth=1;fillColor=#cdeb8b;" vertex="1" parent="gG1rawxMJscciwoJlw1L-100">
          <mxGeometry x="60" y="10" width="87" height="50" as="geometry" />
        </mxCell>
        <mxCell id="gG1rawxMJscciwoJlw1L-107" value="提交人提交回滚上线工单" style="rounded=1;whiteSpace=wrap;html=1;strokeWidth=1;" vertex="1" parent="gG1rawxMJscciwoJlw1L-100">
          <mxGeometry x="220" y="10" width="100" height="50" as="geometry" />
        </mxCell>
        <mxCell id="gG1rawxMJscciwoJlw1L-117" value="结束" style="strokeWidth=1;html=1;shape=mxgraph.flowchart.start_1;whiteSpace=wrap;strokeColor=#432D57;fillColor=#76608a;fontColor=#ffffff;" vertex="1" parent="gG1rawxMJscciwoJlw1L-100">
          <mxGeometry x="60" y="165.5" width="87" height="55" as="geometry" />
        </mxCell>
        <mxCell id="gG1rawxMJscciwoJlw1L-123" style="edgeStyle=orthogonalEdgeStyle;rounded=0;orthogonalLoop=1;jettySize=auto;html=1;entryX=0.5;entryY=0;entryDx=0;entryDy=0;entryPerimeter=0;" edge="1" parent="gG1rawxMJscciwoJlw1L-100" source="gG1rawxMJscciwoJlw1L-119" target="gG1rawxMJscciwoJlw1L-117">
          <mxGeometry relative="1" as="geometry" />
        </mxCell>
        <mxCell id="gG1rawxMJscciwoJlw1L-119" value="提示不能回滚" style="rounded=1;whiteSpace=wrap;html=1;strokeWidth=1;" vertex="1" parent="gG1rawxMJscciwoJlw1L-100">
          <mxGeometry x="220" y="76" width="100" height="50" as="geometry" />
        </mxCell>
        <mxCell id="gG1rawxMJscciwoJlw1L-124" value="上线回滚审核" style="swimlane;startSize=20;horizontal=0;fillColor=none;gradientColor=none;fontStyle=0;fontSize=16;" vertex="1" parent="-kGAtnwoqszsTnGILX-w-26">
          <mxGeometry y="3220" width="370" height="230" as="geometry" />
        </mxCell>
        <mxCell id="gG1rawxMJscciwoJlw1L-226" style="edgeStyle=orthogonalEdgeStyle;rounded=0;orthogonalLoop=1;jettySize=auto;html=1;entryX=0;entryY=0.5;entryDx=0;entryDy=0;endArrow=open;endFill=0;" edge="1" parent="gG1rawxMJscciwoJlw1L-124" source="gG1rawxMJscciwoJlw1L-129" target="gG1rawxMJscciwoJlw1L-132">
          <mxGeometry relative="1" as="geometry" />
        </mxCell>
        <mxCell id="gG1rawxMJscciwoJlw1L-129" value="开始" style="ellipse;whiteSpace=wrap;html=1;strokeColor=#36393d;strokeWidth=1;fillColor=#cdeb8b;" vertex="1" parent="gG1rawxMJscciwoJlw1L-124">
          <mxGeometry x="60" y="19.5" width="87" height="50" as="geometry" />
        </mxCell>
        <mxCell id="gG1rawxMJscciwoJlw1L-130" value="结束" style="strokeWidth=1;html=1;shape=mxgraph.flowchart.start_1;whiteSpace=wrap;strokeColor=#432D57;fillColor=#76608a;fontColor=#ffffff;" vertex="1" parent="gG1rawxMJscciwoJlw1L-124">
          <mxGeometry x="60" y="175" width="87" height="55" as="geometry" />
        </mxCell>
        <mxCell id="gG1rawxMJscciwoJlw1L-131" value="通过审核" style="rhombus;whiteSpace=wrap;html=1;rounded=1;strokeWidth=1;" vertex="1" parent="gG1rawxMJscciwoJlw1L-124">
          <mxGeometry x="270" y="95" width="80" height="80" as="geometry" />
        </mxCell>
        <mxCell id="gG1rawxMJscciwoJlw1L-136" style="edgeStyle=orthogonalEdgeStyle;rounded=0;orthogonalLoop=1;jettySize=auto;html=1;entryX=0;entryY=0.5;entryDx=0;entryDy=0;" edge="1" parent="gG1rawxMJscciwoJlw1L-124" source="gG1rawxMJscciwoJlw1L-132" target="gG1rawxMJscciwoJlw1L-131">
          <mxGeometry relative="1" as="geometry" />
        </mxCell>
        <mxCell id="gG1rawxMJscciwoJlw1L-132" value="审核人打开待审核的上线回滚单" style="rounded=1;whiteSpace=wrap;html=1;strokeWidth=1;" vertex="1" parent="gG1rawxMJscciwoJlw1L-124">
          <mxGeometry x="170" y="19.5" width="100" height="50" as="geometry" />
        </mxCell>
        <mxCell id="gG1rawxMJscciwoJlw1L-142" value="执行上线回滚" style="swimlane;startSize=20;horizontal=0;fillColor=none;gradientColor=none;fontStyle=0;fontSize=16;" vertex="1" parent="-kGAtnwoqszsTnGILX-w-26">
          <mxGeometry y="3450" width="370" height="570" as="geometry" />
        </mxCell>
        <mxCell id="-kGAtnwoqszsTnGILX-w-68" style="edgeStyle=orthogonalEdgeStyle;rounded=0;orthogonalLoop=1;jettySize=auto;html=1;entryX=0;entryY=0.5;entryDx=0;entryDy=0;entryPerimeter=0;" parent="1" source="-kGAtnwoqszsTnGILX-w-62" target="-kGAtnwoqszsTnGILX-w-91" edge="1">
          <mxGeometry relative="1" as="geometry">
            <mxPoint x="510" y="295" as="targetPoint" />
          </mxGeometry>
        </mxCell>
        <mxCell id="-kGAtnwoqszsTnGILX-w-86" style="edgeStyle=orthogonalEdgeStyle;rounded=0;orthogonalLoop=1;jettySize=auto;html=1;entryX=1;entryY=0.5;entryDx=0;entryDy=0;exitX=0.5;exitY=0;exitDx=0;exitDy=0;exitPerimeter=0;" parent="1" source="-kGAtnwoqszsTnGILX-w-91" target="-kGAtnwoqszsTnGILX-w-70" edge="1">
          <mxGeometry relative="1" as="geometry">
            <mxPoint x="550" y="250" as="sourcePoint" />
            <Array as="points">
              <mxPoint x="550" y="205" />
            </Array>
          </mxGeometry>
        </mxCell>
        <mxCell id="-kGAtnwoqszsTnGILX-w-92" value="否" style="edgeLabel;html=1;align=center;verticalAlign=middle;resizable=0;points=[];" parent="-kGAtnwoqszsTnGILX-w-86" vertex="1" connectable="0">
          <mxGeometry x="-0.252" y="-3" relative="1" as="geometry">
            <mxPoint as="offset" />
          </mxGeometry>
        </mxCell>
        <mxCell id="-kGAtnwoqszsTnGILX-w-95" style="edgeStyle=orthogonalEdgeStyle;rounded=0;orthogonalLoop=1;jettySize=auto;html=1;entryX=1;entryY=0.5;entryDx=0;entryDy=0;entryPerimeter=0;" parent="1" source="-kGAtnwoqszsTnGILX-w-85" target="-kGAtnwoqszsTnGILX-w-104" edge="1">
          <mxGeometry relative="1" as="geometry">
            <mxPoint x="230" y="405" as="targetPoint" />
          </mxGeometry>
        </mxCell>
        <mxCell id="-kGAtnwoqszsTnGILX-w-101" style="edgeStyle=orthogonalEdgeStyle;rounded=0;orthogonalLoop=1;jettySize=auto;html=1;entryX=0;entryY=0.5;entryDx=0;entryDy=0;" parent="1" source="-kGAtnwoqszsTnGILX-w-98" target="-kGAtnwoqszsTnGILX-w-100" edge="1">
          <mxGeometry relative="1" as="geometry" />
        </mxCell>
        <mxCell id="-kGAtnwoqszsTnGILX-w-106" value="是" style="edgeLabel;html=1;align=center;verticalAlign=middle;resizable=0;points=[];" parent="-kGAtnwoqszsTnGILX-w-101" vertex="1" connectable="0">
          <mxGeometry x="-0.1751" y="-2" relative="1" as="geometry">
            <mxPoint as="offset" />
          </mxGeometry>
        </mxCell>
        <mxCell id="-kGAtnwoqszsTnGILX-w-40" value="工单系统server端（包括DB）" style="swimlane;childLayout=stackLayout;resizeParent=1;resizeParentMax=0;horizontal=1;startSize=20;horizontalStack=0;fillColor=none;gradientColor=none;fontSize=17;" parent="1" vertex="1">
          <mxGeometry x="380" y="70" width="370" height="4020" as="geometry">
            <mxRectangle x="380" y="70" width="180" height="30" as="alternateBounds" />
          </mxGeometry>
        </mxCell>
        <mxCell id="-kGAtnwoqszsTnGILX-w-41" value="" style="swimlane;startSize=20;horizontal=0;fillColor=none;gradientColor=none;flipH=0;direction=east;swimlaneLine=0;" parent="-kGAtnwoqszsTnGILX-w-40" vertex="1">
          <mxGeometry y="20" width="370" height="260" as="geometry">
            <mxRectangle y="20" width="370" height="40" as="alternateBounds" />
          </mxGeometry>
        </mxCell>
        <mxCell id="-kGAtnwoqszsTnGILX-w-85" value="工单数据存入DB，工单状态为待审核" style="rounded=1;whiteSpace=wrap;html=1;fillColor=none;gradientColor=none;" parent="-kGAtnwoqszsTnGILX-w-41" vertex="1">
          <mxGeometry x="114" y="192.5" width="110" height="50" as="geometry" />
        </mxCell>
        <mxCell id="gG1rawxMJscciwoJlw1L-46" value="是" style="edgeStyle=orthogonalEdgeStyle;rounded=0;orthogonalLoop=1;jettySize=auto;html=1;entryX=0.5;entryY=0;entryDx=0;entryDy=0;" edge="1" parent="-kGAtnwoqszsTnGILX-w-41" source="-kGAtnwoqszsTnGILX-w-91" target="-kGAtnwoqszsTnGILX-w-85">
          <mxGeometry relative="1" as="geometry" />
        </mxCell>
        <mxCell id="-kGAtnwoqszsTnGILX-w-91" value="工单&lt;br&gt;检查通过" style="strokeWidth=1;html=1;shape=mxgraph.flowchart.decision;whiteSpace=wrap;fillColor=#ffff88;strokeColor=#36393d;" parent="-kGAtnwoqszsTnGILX-w-41" vertex="1">
          <mxGeometry x="134" y="100" width="70" height="60" as="geometry" />
        </mxCell>
        <mxCell id="-kGAtnwoqszsTnGILX-w-42" value="" style="swimlane;startSize=20;horizontal=0;fillColor=none;gradientColor=none;swimlaneLine=0;" parent="-kGAtnwoqszsTnGILX-w-40" vertex="1">
          <mxGeometry y="280" width="370" height="320" as="geometry" />
        </mxCell>
        <mxCell id="-kGAtnwoqszsTnGILX-w-114" style="edgeStyle=orthogonalEdgeStyle;rounded=0;orthogonalLoop=1;jettySize=auto;html=1;entryX=0.5;entryY=0;entryDx=0;entryDy=0;" parent="-kGAtnwoqszsTnGILX-w-42" source="-kGAtnwoqszsTnGILX-w-100" target="-kGAtnwoqszsTnGILX-w-113" edge="1">
          <mxGeometry relative="1" as="geometry" />
        </mxCell>
        <mxCell id="-kGAtnwoqszsTnGILX-w-100" value="标记工单状态&lt;br&gt;为未通过" style="rounded=1;whiteSpace=wrap;html=1;fillColor=none;gradientColor=none;" parent="-kGAtnwoqszsTnGILX-w-42" vertex="1">
          <mxGeometry x="80" y="110" width="110" height="50" as="geometry" />
        </mxCell>
        <mxCell id="-kGAtnwoqszsTnGILX-w-115" style="edgeStyle=orthogonalEdgeStyle;rounded=0;orthogonalLoop=1;jettySize=auto;html=1;entryX=0;entryY=0.5;entryDx=0;entryDy=0;" parent="-kGAtnwoqszsTnGILX-w-42" source="-kGAtnwoqszsTnGILX-w-102" target="-kGAtnwoqszsTnGILX-w-113" edge="1">
          <mxGeometry relative="1" as="geometry" />
        </mxCell>
        <mxCell id="-kGAtnwoqszsTnGILX-w-102" value="标记工单状态&lt;br&gt;为待执行" style="rounded=1;whiteSpace=wrap;html=1;fillColor=none;gradientColor=none;" parent="-kGAtnwoqszsTnGILX-w-42" vertex="1">
          <mxGeometry x="80" y="200" width="110" height="50" as="geometry" />
        </mxCell>
        <mxCell id="-kGAtnwoqszsTnGILX-w-113" value="修改后存入DB" style="rounded=1;whiteSpace=wrap;html=1;fillColor=none;gradientColor=none;" parent="-kGAtnwoqszsTnGILX-w-42" vertex="1">
          <mxGeometry x="230" y="200" width="110" height="50" as="geometry" />
        </mxCell>
        <mxCell id="-kGAtnwoqszsTnGILX-w-43" value="" style="swimlane;startSize=20;horizontal=0;fillColor=none;gradientColor=none;swimlaneLine=0;" parent="-kGAtnwoqszsTnGILX-w-40" vertex="1">
          <mxGeometry y="600" width="370" height="670" as="geometry" />
        </mxCell>
        <mxCell id="-kGAtnwoqszsTnGILX-w-44" style="swimlane;startSize=20;horizontal=0;fillColor=none;gradientColor=none;swimlaneLine=0;" parent="-kGAtnwoqszsTnGILX-w-40" vertex="1">
          <mxGeometry y="1270" width="370" height="570" as="geometry">
            <mxRectangle y="1380" width="370" height="40" as="alternateBounds" />
          </mxGeometry>
        </mxCell>
        <mxCell id="gG1rawxMJscciwoJlw1L-21" value="否" style="edgeStyle=orthogonalEdgeStyle;rounded=0;orthogonalLoop=1;jettySize=auto;html=1;entryX=0.583;entryY=0;entryDx=0;entryDy=0;entryPerimeter=0;" edge="1" parent="-kGAtnwoqszsTnGILX-w-44" source="-kGAtnwoqszsTnGILX-w-262" target="gG1rawxMJscciwoJlw1L-12">
          <mxGeometry relative="1" as="geometry" />
        </mxCell>
        <mxCell id="-kGAtnwoqszsTnGILX-w-262" value="版本是否&lt;br&gt;有差异" style="rhombus;whiteSpace=wrap;html=1;strokeColor=#36393d;strokeWidth=1;fontSize=16;fillColor=#ffff88;" parent="-kGAtnwoqszsTnGILX-w-44" vertex="1">
          <mxGeometry x="70" y="190" width="80" height="80" as="geometry" />
        </mxCell>
        <mxCell id="gG1rawxMJscciwoJlw1L-19" style="edgeStyle=orthogonalEdgeStyle;rounded=0;orthogonalLoop=1;jettySize=auto;html=1;entryX=0.5;entryY=0;entryDx=0;entryDy=0;" edge="1" parent="-kGAtnwoqszsTnGILX-w-44" source="-kGAtnwoqszsTnGILX-w-264" target="-kGAtnwoqszsTnGILX-w-262">
          <mxGeometry relative="1" as="geometry" />
        </mxCell>
        <mxCell id="-kGAtnwoqszsTnGILX-w-264" value="灰度版本检查" style="rounded=1;whiteSpace=wrap;html=1;strokeColor=#36393d;strokeWidth=1;fontSize=16;fillColor=#ffff88;" parent="-kGAtnwoqszsTnGILX-w-44" vertex="1">
          <mxGeometry x="50" y="110" width="120" height="60" as="geometry" />
        </mxCell>
        <mxCell id="gG1rawxMJscciwoJlw1L-24" style="edgeStyle=orthogonalEdgeStyle;rounded=0;orthogonalLoop=1;jettySize=auto;html=1;entryX=0;entryY=0.5;entryDx=0;entryDy=0;" edge="1" parent="-kGAtnwoqszsTnGILX-w-44" source="-kGAtnwoqszsTnGILX-w-279" target="gG1rawxMJscciwoJlw1L-22">
          <mxGeometry relative="1" as="geometry" />
        </mxCell>
        <mxCell id="-kGAtnwoqszsTnGILX-w-279" value="标记发版工单状态为复核未通过" style="rounded=1;whiteSpace=wrap;html=1;strokeColor=default;strokeWidth=1;fontSize=16;fillColor=none;gradientColor=none;" parent="-kGAtnwoqszsTnGILX-w-44" vertex="1">
          <mxGeometry x="40" y="384" width="120" height="60" as="geometry" />
        </mxCell>
        <mxCell id="gG1rawxMJscciwoJlw1L-25" style="edgeStyle=orthogonalEdgeStyle;rounded=0;orthogonalLoop=1;jettySize=auto;html=1;entryX=0.5;entryY=0;entryDx=0;entryDy=0;" edge="1" parent="-kGAtnwoqszsTnGILX-w-44" source="gG1rawxMJscciwoJlw1L-12" target="gG1rawxMJscciwoJlw1L-22">
          <mxGeometry relative="1" as="geometry" />
        </mxCell>
        <mxCell id="gG1rawxMJscciwoJlw1L-12" value="标记发版工单状态为复核通过" style="rounded=1;whiteSpace=wrap;html=1;strokeColor=default;strokeWidth=1;fontSize=16;fillColor=none;gradientColor=none;" vertex="1" parent="-kGAtnwoqszsTnGILX-w-44">
          <mxGeometry x="40" y="290" width="120" height="60" as="geometry" />
        </mxCell>
        <mxCell id="gG1rawxMJscciwoJlw1L-22" value="更新工单发版复核状态" style="rounded=1;whiteSpace=wrap;html=1;strokeColor=default;strokeWidth=1;fontSize=16;fillColor=none;gradientColor=none;" vertex="1" parent="-kGAtnwoqszsTnGILX-w-44">
          <mxGeometry x="210" y="384" width="120" height="60" as="geometry" />
        </mxCell>
        <mxCell id="gG1rawxMJscciwoJlw1L-4" style="swimlane;startSize=20;horizontal=0;fillColor=none;gradientColor=none;swimlaneLine=0;" vertex="1" parent="-kGAtnwoqszsTnGILX-w-40">
          <mxGeometry y="1840" width="370" height="380" as="geometry">
            <mxRectangle y="1380" width="370" height="40" as="alternateBounds" />
          </mxGeometry>
        </mxCell>
        <mxCell id="gG1rawxMJscciwoJlw1L-36" style="edgeStyle=orthogonalEdgeStyle;rounded=0;orthogonalLoop=1;jettySize=auto;html=1;entryX=0.5;entryY=0;entryDx=0;entryDy=0;" edge="1" parent="gG1rawxMJscciwoJlw1L-4" source="gG1rawxMJscciwoJlw1L-31" target="gG1rawxMJscciwoJlw1L-33">
          <mxGeometry relative="1" as="geometry" />
        </mxCell>
        <mxCell id="gG1rawxMJscciwoJlw1L-31" value="灰度版本检查" style="rounded=1;whiteSpace=wrap;html=1;strokeColor=#36393d;strokeWidth=1;fontSize=16;fillColor=#ffff88;" vertex="1" parent="gG1rawxMJscciwoJlw1L-4">
          <mxGeometry x="110" y="25" width="120" height="60" as="geometry" />
        </mxCell>
        <mxCell id="gG1rawxMJscciwoJlw1L-37" style="edgeStyle=orthogonalEdgeStyle;rounded=0;orthogonalLoop=1;jettySize=auto;html=1;entryX=0.5;entryY=0;entryDx=0;entryDy=0;" edge="1" parent="gG1rawxMJscciwoJlw1L-4" source="gG1rawxMJscciwoJlw1L-33" target="gG1rawxMJscciwoJlw1L-34">
          <mxGeometry relative="1" as="geometry" />
        </mxCell>
        <mxCell id="gG1rawxMJscciwoJlw1L-33" value="版本是否&lt;br&gt;有差异" style="rhombus;whiteSpace=wrap;html=1;strokeColor=#36393d;strokeWidth=1;fontSize=16;fillColor=#ffff88;" vertex="1" parent="gG1rawxMJscciwoJlw1L-4">
          <mxGeometry x="130" y="110" width="80" height="80" as="geometry" />
        </mxCell>
        <mxCell id="gG1rawxMJscciwoJlw1L-38" style="edgeStyle=orthogonalEdgeStyle;rounded=0;orthogonalLoop=1;jettySize=auto;html=1;entryX=0.5;entryY=0;entryDx=0;entryDy=0;" edge="1" parent="gG1rawxMJscciwoJlw1L-4" source="gG1rawxMJscciwoJlw1L-34" target="gG1rawxMJscciwoJlw1L-35">
          <mxGeometry relative="1" as="geometry" />
        </mxCell>
        <mxCell id="gG1rawxMJscciwoJlw1L-34" value="记录上线工单所含集群版本" style="rounded=1;whiteSpace=wrap;html=1;strokeWidth=1;fontSize=16;fillColor=#ffff88;strokeColor=#36393d;" vertex="1" parent="gG1rawxMJscciwoJlw1L-4">
          <mxGeometry x="110" y="210" width="120" height="60" as="geometry" />
        </mxCell>
        <mxCell id="gG1rawxMJscciwoJlw1L-35" value="生成上线工单" style="rounded=1;whiteSpace=wrap;html=1;strokeWidth=1;fontSize=16;" vertex="1" parent="gG1rawxMJscciwoJlw1L-4">
          <mxGeometry x="110" y="305" width="120" height="60" as="geometry" />
        </mxCell>
        <mxCell id="gG1rawxMJscciwoJlw1L-5" style="swimlane;startSize=20;horizontal=0;fillColor=none;gradientColor=none;swimlaneLine=0;" vertex="1" parent="-kGAtnwoqszsTnGILX-w-40">
          <mxGeometry y="2220" width="370" height="350" as="geometry">
            <mxRectangle y="1380" width="370" height="40" as="alternateBounds" />
          </mxGeometry>
        </mxCell>
        <mxCell id="gG1rawxMJscciwoJlw1L-67" style="edgeStyle=orthogonalEdgeStyle;rounded=0;orthogonalLoop=1;jettySize=auto;html=1;entryX=0.5;entryY=0;entryDx=0;entryDy=0;" edge="1" parent="gG1rawxMJscciwoJlw1L-5" source="gG1rawxMJscciwoJlw1L-58" target="gG1rawxMJscciwoJlw1L-63">
          <mxGeometry relative="1" as="geometry" />
        </mxCell>
        <mxCell id="gG1rawxMJscciwoJlw1L-58" value="标记上线工单状态为审核通过" style="rounded=1;whiteSpace=wrap;html=1;fillColor=none;gradientColor=none;" vertex="1" parent="gG1rawxMJscciwoJlw1L-5">
          <mxGeometry x="34" y="112.5" width="116" height="45" as="geometry" />
        </mxCell>
        <mxCell id="gG1rawxMJscciwoJlw1L-66" style="edgeStyle=orthogonalEdgeStyle;rounded=0;orthogonalLoop=1;jettySize=auto;html=1;entryX=0;entryY=0.5;entryDx=0;entryDy=0;" edge="1" parent="gG1rawxMJscciwoJlw1L-5" source="gG1rawxMJscciwoJlw1L-60" target="gG1rawxMJscciwoJlw1L-63">
          <mxGeometry relative="1" as="geometry" />
        </mxCell>
        <mxCell id="gG1rawxMJscciwoJlw1L-60" value="标记上线工单状态为审核不通过" style="rounded=1;whiteSpace=wrap;html=1;fillColor=none;gradientColor=none;" vertex="1" parent="gG1rawxMJscciwoJlw1L-5">
          <mxGeometry x="34" y="209" width="116" height="40" as="geometry" />
        </mxCell>
        <mxCell id="gG1rawxMJscciwoJlw1L-63" value="更新上线工单的审核状态" style="rounded=1;whiteSpace=wrap;html=1;fillColor=none;gradientColor=none;" vertex="1" parent="gG1rawxMJscciwoJlw1L-5">
          <mxGeometry x="190" y="206" width="115" height="45" as="geometry" />
        </mxCell>
        <mxCell id="gG1rawxMJscciwoJlw1L-76" style="swimlane;startSize=20;horizontal=0;fillColor=none;gradientColor=none;swimlaneLine=0;" vertex="1" parent="-kGAtnwoqszsTnGILX-w-40">
          <mxGeometry y="2570" width="370" height="420" as="geometry">
            <mxRectangle y="1380" width="370" height="40" as="alternateBounds" />
          </mxGeometry>
        </mxCell>
        <mxCell id="gG1rawxMJscciwoJlw1L-101" style="swimlane;startSize=20;horizontal=0;fillColor=none;gradientColor=none;swimlaneLine=0;" vertex="1" parent="-kGAtnwoqszsTnGILX-w-40">
          <mxGeometry y="2990" width="370" height="230" as="geometry">
            <mxRectangle y="1380" width="370" height="40" as="alternateBounds" />
          </mxGeometry>
        </mxCell>
        <mxCell id="gG1rawxMJscciwoJlw1L-108" value="更新工单状态为回滚审核中" style="rounded=1;whiteSpace=wrap;html=1;strokeWidth=1;" vertex="1" parent="gG1rawxMJscciwoJlw1L-101">
          <mxGeometry x="150" y="167" width="100" height="50" as="geometry" />
        </mxCell>
        <mxCell id="gG1rawxMJscciwoJlw1L-150" value="是" style="edgeStyle=orthogonalEdgeStyle;rounded=0;orthogonalLoop=1;jettySize=auto;html=1;entryX=0.5;entryY=0;entryDx=0;entryDy=0;" edge="1" parent="gG1rawxMJscciwoJlw1L-101" source="gG1rawxMJscciwoJlw1L-114" target="gG1rawxMJscciwoJlw1L-108">
          <mxGeometry relative="1" as="geometry" />
        </mxCell>
        <mxCell id="gG1rawxMJscciwoJlw1L-114" value="通过回滚检查" style="rhombus;whiteSpace=wrap;html=1;rounded=1;strokeWidth=1;" vertex="1" parent="gG1rawxMJscciwoJlw1L-101">
          <mxGeometry x="160" y="60" width="80" height="80" as="geometry" />
        </mxCell>
        <mxCell id="gG1rawxMJscciwoJlw1L-125" style="swimlane;startSize=20;horizontal=0;fillColor=none;gradientColor=none;swimlaneLine=0;" vertex="1" parent="-kGAtnwoqszsTnGILX-w-40">
          <mxGeometry y="3220" width="370" height="230" as="geometry">
            <mxRectangle y="1380" width="370" height="40" as="alternateBounds" />
          </mxGeometry>
        </mxCell>
        <mxCell id="gG1rawxMJscciwoJlw1L-140" style="edgeStyle=orthogonalEdgeStyle;rounded=0;orthogonalLoop=1;jettySize=auto;html=1;entryX=1;entryY=0.5;entryDx=0;entryDy=0;" edge="1" parent="gG1rawxMJscciwoJlw1L-125" source="gG1rawxMJscciwoJlw1L-133" target="gG1rawxMJscciwoJlw1L-135">
          <mxGeometry relative="1" as="geometry">
            <Array as="points">
              <mxPoint x="300.5" y="42" />
              <mxPoint x="300.5" y="202" />
            </Array>
          </mxGeometry>
        </mxCell>
        <mxCell id="gG1rawxMJscciwoJlw1L-133" value="标记上线工单状态为回滚审核通过" style="rounded=1;whiteSpace=wrap;html=1;fillColor=none;gradientColor=none;" vertex="1" parent="gG1rawxMJscciwoJlw1L-125">
          <mxGeometry x="140" y="19" width="116" height="45" as="geometry" />
        </mxCell>
        <mxCell id="gG1rawxMJscciwoJlw1L-139" style="edgeStyle=orthogonalEdgeStyle;rounded=0;orthogonalLoop=1;jettySize=auto;html=1;entryX=0.5;entryY=0;entryDx=0;entryDy=0;" edge="1" parent="gG1rawxMJscciwoJlw1L-125" source="gG1rawxMJscciwoJlw1L-134" target="gG1rawxMJscciwoJlw1L-135">
          <mxGeometry relative="1" as="geometry" />
        </mxCell>
        <mxCell id="gG1rawxMJscciwoJlw1L-134" value="标记上线工单状态为回滚审核不通过" style="rounded=1;whiteSpace=wrap;html=1;fillColor=none;gradientColor=none;" vertex="1" parent="gG1rawxMJscciwoJlw1L-125">
          <mxGeometry x="140" y="113.5" width="116" height="40" as="geometry" />
        </mxCell>
        <mxCell id="gG1rawxMJscciwoJlw1L-135" value="更新上线工单的回滚审核状态" style="rounded=1;whiteSpace=wrap;html=1;fillColor=none;gradientColor=none;" vertex="1" parent="gG1rawxMJscciwoJlw1L-125">
          <mxGeometry x="140" y="179" width="115" height="45" as="geometry" />
        </mxCell>
        <mxCell id="gG1rawxMJscciwoJlw1L-143" style="swimlane;startSize=20;horizontal=0;fillColor=none;gradientColor=none;swimlaneLine=0;" vertex="1" parent="-kGAtnwoqszsTnGILX-w-40">
          <mxGeometry y="3450" width="370" height="570" as="geometry">
            <mxRectangle y="1380" width="370" height="40" as="alternateBounds" />
          </mxGeometry>
        </mxCell>
        <mxCell id="-kGAtnwoqszsTnGILX-w-107" style="edgeStyle=orthogonalEdgeStyle;rounded=0;orthogonalLoop=1;jettySize=auto;html=1;entryX=0;entryY=0.5;entryDx=0;entryDy=0;exitX=0.5;exitY=1;exitDx=0;exitDy=0;exitPerimeter=0;" parent="1" source="-kGAtnwoqszsTnGILX-w-98" target="-kGAtnwoqszsTnGILX-w-102" edge="1">
          <mxGeometry relative="1" as="geometry">
            <Array as="points">
              <mxPoint x="215" y="575" />
            </Array>
          </mxGeometry>
        </mxCell>
        <mxCell id="-kGAtnwoqszsTnGILX-w-108" value="否" style="edgeLabel;html=1;align=center;verticalAlign=middle;resizable=0;points=[];" parent="-kGAtnwoqszsTnGILX-w-107" vertex="1" connectable="0">
          <mxGeometry x="0.0259" y="-1" relative="1" as="geometry">
            <mxPoint as="offset" />
          </mxGeometry>
        </mxCell>
        <mxCell id="-kGAtnwoqszsTnGILX-w-119" value="工单系统-调度服务(FARMER)" style="swimlane;childLayout=stackLayout;resizeParent=1;resizeParentMax=0;horizontal=1;startSize=20;horizontalStack=0;fillColor=none;gradientColor=none;fontSize=17;" parent="1" vertex="1">
          <mxGeometry x="750" y="70" width="390" height="4020" as="geometry" />
        </mxCell>
        <mxCell id="-kGAtnwoqszsTnGILX-w-120" value="" style="swimlane;startSize=20;horizontal=0;fillColor=none;gradientColor=none;flipH=0;direction=east;swimlaneLine=0;" parent="-kGAtnwoqszsTnGILX-w-119" vertex="1">
          <mxGeometry y="20" width="390" height="260" as="geometry">
            <mxRectangle y="20" width="370" height="40" as="alternateBounds" />
          </mxGeometry>
        </mxCell>
        <mxCell id="-kGAtnwoqszsTnGILX-w-124" value="" style="swimlane;startSize=20;horizontal=0;fillColor=none;gradientColor=none;swimlaneLine=0;" parent="-kGAtnwoqszsTnGILX-w-119" vertex="1">
          <mxGeometry y="280" width="390" height="320" as="geometry" />
        </mxCell>
        <mxCell id="-kGAtnwoqszsTnGILX-w-130" value="" style="swimlane;startSize=20;horizontal=0;fillColor=none;gradientColor=none;swimlaneLine=0;" parent="-kGAtnwoqszsTnGILX-w-119" vertex="1">
          <mxGeometry y="600" width="390" height="670" as="geometry" />
        </mxCell>
        <mxCell id="-kGAtnwoqszsTnGILX-w-133" value="调度服务定时调度待执行的发版工单" style="ellipse;whiteSpace=wrap;html=1;fillColor=#cdeb8b;strokeColor=#36393d;" parent="-kGAtnwoqszsTnGILX-w-130" vertex="1">
          <mxGeometry x="30" y="40" width="110" height="50" as="geometry" />
        </mxCell>
        <mxCell id="-kGAtnwoqszsTnGILX-w-187" style="edgeStyle=orthogonalEdgeStyle;rounded=0;orthogonalLoop=1;jettySize=auto;html=1;entryX=0;entryY=0.5;entryDx=0;entryDy=0;" parent="-kGAtnwoqszsTnGILX-w-130" source="-kGAtnwoqszsTnGILX-w-134" target="-kGAtnwoqszsTnGILX-w-142" edge="1">
          <mxGeometry relative="1" as="geometry" />
        </mxCell>
        <mxCell id="-kGAtnwoqszsTnGILX-w-134" value="标记工单状态&lt;br&gt;为执行中" style="rounded=1;whiteSpace=wrap;html=1;fillColor=none;gradientColor=none;" parent="-kGAtnwoqszsTnGILX-w-130" vertex="1">
          <mxGeometry x="30" y="230" width="110" height="45" as="geometry" />
        </mxCell>
        <mxCell id="-kGAtnwoqszsTnGILX-w-142" value="下发文件包构建任务" style="rounded=1;whiteSpace=wrap;html=1;fillColor=none;gradientColor=none;" parent="-kGAtnwoqszsTnGILX-w-130" vertex="1">
          <mxGeometry x="185" y="40" width="110" height="50" as="geometry" />
        </mxCell>
        <mxCell id="gG1rawxMJscciwoJlw1L-163" style="edgeStyle=orthogonalEdgeStyle;rounded=0;orthogonalLoop=1;jettySize=auto;html=1;entryX=0;entryY=0.5;entryDx=0;entryDy=0;" edge="1" parent="-kGAtnwoqszsTnGILX-w-130" source="-kGAtnwoqszsTnGILX-w-144" target="-kGAtnwoqszsTnGILX-w-189">
          <mxGeometry relative="1" as="geometry">
            <Array as="points">
              <mxPoint x="170" y="240" />
              <mxPoint x="170" y="155" />
            </Array>
          </mxGeometry>
        </mxCell>
        <mxCell id="gG1rawxMJscciwoJlw1L-164" value="否" style="edgeLabel;html=1;align=center;verticalAlign=middle;resizable=0;points=[];" vertex="1" connectable="0" parent="gG1rawxMJscciwoJlw1L-163">
          <mxGeometry x="0.0268" y="-4" relative="1" as="geometry">
            <mxPoint as="offset" />
          </mxGeometry>
        </mxCell>
        <mxCell id="gG1rawxMJscciwoJlw1L-187" style="edgeStyle=orthogonalEdgeStyle;rounded=0;orthogonalLoop=1;jettySize=auto;html=1;entryX=0.5;entryY=0;entryDx=0;entryDy=0;endArrow=open;endFill=0;" edge="1" parent="-kGAtnwoqszsTnGILX-w-130" source="-kGAtnwoqszsTnGILX-w-144" target="gG1rawxMJscciwoJlw1L-186">
          <mxGeometry relative="1" as="geometry" />
        </mxCell>
        <mxCell id="-kGAtnwoqszsTnGILX-w-144" value="是否构建完成" style="rhombus;whiteSpace=wrap;html=1;strokeColor=default;strokeWidth=1;fillColor=none;gradientColor=none;" parent="-kGAtnwoqszsTnGILX-w-130" vertex="1">
          <mxGeometry x="205" y="203" width="70" height="70" as="geometry" />
        </mxCell>
        <mxCell id="-kGAtnwoqszsTnGILX-w-186" value="是" style="edgeStyle=orthogonalEdgeStyle;rounded=0;orthogonalLoop=1;jettySize=auto;html=1;entryX=0.5;entryY=0;entryDx=0;entryDy=0;" parent="-kGAtnwoqszsTnGILX-w-130" source="-kGAtnwoqszsTnGILX-w-175" target="-kGAtnwoqszsTnGILX-w-134" edge="1">
          <mxGeometry relative="1" as="geometry" />
        </mxCell>
        <mxCell id="gG1rawxMJscciwoJlw1L-74" value="否" style="edgeStyle=orthogonalEdgeStyle;rounded=0;orthogonalLoop=1;jettySize=auto;html=1;entryX=0.5;entryY=1;entryDx=0;entryDy=0;" edge="1" parent="-kGAtnwoqszsTnGILX-w-130" source="-kGAtnwoqszsTnGILX-w-175" target="-kGAtnwoqszsTnGILX-w-133">
          <mxGeometry relative="1" as="geometry" />
        </mxCell>
        <mxCell id="-kGAtnwoqszsTnGILX-w-175" value="是否有待执行发版的工单" style="rhombus;whiteSpace=wrap;html=1;strokeColor=default;strokeWidth=1;fillColor=none;gradientColor=none;" parent="-kGAtnwoqszsTnGILX-w-130" vertex="1">
          <mxGeometry x="45" y="120" width="80" height="80" as="geometry" />
        </mxCell>
        <mxCell id="-kGAtnwoqszsTnGILX-w-230" style="edgeStyle=orthogonalEdgeStyle;rounded=0;orthogonalLoop=1;jettySize=auto;html=1;entryX=0.5;entryY=0;entryDx=0;entryDy=0;startArrow=none;startFill=0;endArrow=classic;endFill=1;" parent="-kGAtnwoqszsTnGILX-w-130" source="-kGAtnwoqszsTnGILX-w-189" target="-kGAtnwoqszsTnGILX-w-144" edge="1">
          <mxGeometry relative="1" as="geometry" />
        </mxCell>
        <mxCell id="-kGAtnwoqszsTnGILX-w-189" value="轮询下发任务文件包的构建状态" style="ellipse;;whiteSpace=wrap;html=1;fillColor=#cdeb8b;strokeColor=#36393d;" parent="-kGAtnwoqszsTnGILX-w-130" vertex="1">
          <mxGeometry x="185" y="129" width="110" height="51" as="geometry" />
        </mxCell>
        <mxCell id="-kGAtnwoqszsTnGILX-w-244" style="edgeStyle=orthogonalEdgeStyle;rounded=0;orthogonalLoop=1;jettySize=auto;html=1;entryX=0.5;entryY=0;entryDx=0;entryDy=0;startArrow=none;startFill=0;endArrow=classic;endFill=1;" parent="-kGAtnwoqszsTnGILX-w-130" source="-kGAtnwoqszsTnGILX-w-236" target="-kGAtnwoqszsTnGILX-w-240" edge="1">
          <mxGeometry relative="1" as="geometry" />
        </mxCell>
        <mxCell id="-kGAtnwoqszsTnGILX-w-236" value="轮询发版状态" style="ellipse;;whiteSpace=wrap;html=1;fillColor=#cdeb8b;strokeColor=#36393d;" parent="-kGAtnwoqszsTnGILX-w-130" vertex="1">
          <mxGeometry x="185" y="400" width="110" height="50" as="geometry" />
        </mxCell>
        <mxCell id="-kGAtnwoqszsTnGILX-w-241" style="edgeStyle=orthogonalEdgeStyle;rounded=0;orthogonalLoop=1;jettySize=auto;html=1;entryX=0;entryY=0.5;entryDx=0;entryDy=0;startArrow=none;startFill=0;endArrow=classic;endFill=1;" parent="-kGAtnwoqszsTnGILX-w-130" source="-kGAtnwoqszsTnGILX-w-240" target="-kGAtnwoqszsTnGILX-w-236" edge="1">
          <mxGeometry relative="1" as="geometry">
            <Array as="points">
              <mxPoint x="165" y="515" />
              <mxPoint x="165" y="425" />
            </Array>
          </mxGeometry>
        </mxCell>
        <mxCell id="-kGAtnwoqszsTnGILX-w-243" value="否" style="edgeLabel;html=1;align=center;verticalAlign=middle;resizable=0;points=[];" parent="-kGAtnwoqszsTnGILX-w-241" vertex="1" connectable="0">
          <mxGeometry x="0.1852" y="3" relative="1" as="geometry">
            <mxPoint as="offset" />
          </mxGeometry>
        </mxCell>
        <mxCell id="-kGAtnwoqszsTnGILX-w-245" value="是" style="edgeStyle=orthogonalEdgeStyle;rounded=0;orthogonalLoop=1;jettySize=auto;html=1;entryX=0.5;entryY=0;entryDx=0;entryDy=0;startArrow=none;startFill=0;endArrow=classic;endFill=1;" parent="-kGAtnwoqszsTnGILX-w-130" source="-kGAtnwoqszsTnGILX-w-240" target="-kGAtnwoqszsTnGILX-w-242" edge="1">
          <mxGeometry relative="1" as="geometry" />
        </mxCell>
        <mxCell id="-kGAtnwoqszsTnGILX-w-240" value="检查SETS表的发版任务状态是否已执行结束" style="rhombus;whiteSpace=wrap;html=1;strokeColor=default;strokeWidth=1;fillColor=none;gradientColor=none;" parent="-kGAtnwoqszsTnGILX-w-130" vertex="1">
          <mxGeometry x="195" y="480" width="90" height="90" as="geometry" />
        </mxCell>
        <mxCell id="-kGAtnwoqszsTnGILX-w-242" value="发版执行完成" style="rounded=1;whiteSpace=wrap;html=1;" parent="-kGAtnwoqszsTnGILX-w-130" vertex="1">
          <mxGeometry x="185" y="600" width="110" height="50" as="geometry" />
        </mxCell>
        <mxCell id="gG1rawxMJscciwoJlw1L-186" value="下发发版任务到SETS表" style="rounded=1;whiteSpace=wrap;html=1;fillColor=none;gradientColor=none;" vertex="1" parent="-kGAtnwoqszsTnGILX-w-130">
          <mxGeometry x="185" y="310" width="110" height="50" as="geometry" />
        </mxCell>
        <mxCell id="gG1rawxMJscciwoJlw1L-221" style="edgeStyle=orthogonalEdgeStyle;rounded=0;orthogonalLoop=1;jettySize=auto;html=1;entryX=0;entryY=0.5;entryDx=0;entryDy=0;endArrow=open;endFill=0;" edge="1" parent="-kGAtnwoqszsTnGILX-w-130" source="gG1rawxMJscciwoJlw1L-49" target="-kGAtnwoqszsTnGILX-w-133">
          <mxGeometry relative="1" as="geometry">
            <Array as="points">
              <mxPoint x="10" y="625" />
              <mxPoint x="10" y="65" />
            </Array>
          </mxGeometry>
        </mxCell>
        <mxCell id="gG1rawxMJscciwoJlw1L-49" value="更新工单发版状态（成功或失败）" style="rounded=1;whiteSpace=wrap;html=1;" vertex="1" parent="-kGAtnwoqszsTnGILX-w-130">
          <mxGeometry x="16" y="600" width="110" height="50" as="geometry" />
        </mxCell>
        <mxCell id="gG1rawxMJscciwoJlw1L-50" style="edgeStyle=orthogonalEdgeStyle;rounded=0;orthogonalLoop=1;jettySize=auto;html=1;entryX=1;entryY=0.5;entryDx=0;entryDy=0;" edge="1" parent="-kGAtnwoqszsTnGILX-w-130" source="-kGAtnwoqszsTnGILX-w-242" target="gG1rawxMJscciwoJlw1L-49">
          <mxGeometry relative="1" as="geometry" />
        </mxCell>
        <mxCell id="-kGAtnwoqszsTnGILX-w-131" style="swimlane;startSize=20;horizontal=0;fillColor=none;gradientColor=none;swimlaneLine=0;" parent="-kGAtnwoqszsTnGILX-w-119" vertex="1">
          <mxGeometry y="1270" width="390" height="570" as="geometry" />
        </mxCell>
        <mxCell id="gG1rawxMJscciwoJlw1L-3" style="swimlane;startSize=20;horizontal=0;fillColor=none;gradientColor=none;swimlaneLine=0;" vertex="1" parent="-kGAtnwoqszsTnGILX-w-119">
          <mxGeometry y="1840" width="390" height="380" as="geometry" />
        </mxCell>
        <mxCell id="gG1rawxMJscciwoJlw1L-6" style="swimlane;startSize=20;horizontal=0;fillColor=none;gradientColor=none;swimlaneLine=0;" vertex="1" parent="-kGAtnwoqszsTnGILX-w-119">
          <mxGeometry y="2220" width="390" height="350" as="geometry" />
        </mxCell>
        <mxCell id="gG1rawxMJscciwoJlw1L-77" style="swimlane;startSize=20;horizontal=0;fillColor=none;gradientColor=none;swimlaneLine=0;" vertex="1" parent="-kGAtnwoqszsTnGILX-w-119">
          <mxGeometry y="2570" width="390" height="420" as="geometry" />
        </mxCell>
        <mxCell id="gG1rawxMJscciwoJlw1L-84" style="edgeStyle=orthogonalEdgeStyle;rounded=0;orthogonalLoop=1;jettySize=auto;html=1;entryX=0.5;entryY=0;entryDx=0;entryDy=0;entryPerimeter=0;" edge="1" parent="gG1rawxMJscciwoJlw1L-77" target="gG1rawxMJscciwoJlw1L-81">
          <mxGeometry relative="1" as="geometry">
            <mxPoint x="204" y="65" as="sourcePoint" />
          </mxGeometry>
        </mxCell>
        <mxCell id="gG1rawxMJscciwoJlw1L-80" value="调度服务定时调度待执行的上线工单" style="ellipse;whiteSpace=wrap;html=1;fillColor=#cdeb8b;strokeColor=#36393d;" vertex="1" parent="gG1rawxMJscciwoJlw1L-77">
          <mxGeometry x="142" y="15" width="110" height="50" as="geometry" />
        </mxCell>
        <mxCell id="gG1rawxMJscciwoJlw1L-86" value="是" style="edgeStyle=orthogonalEdgeStyle;rounded=0;orthogonalLoop=1;jettySize=auto;html=1;entryX=1;entryY=0.5;entryDx=0;entryDy=0;" edge="1" parent="gG1rawxMJscciwoJlw1L-77" source="gG1rawxMJscciwoJlw1L-81" target="gG1rawxMJscciwoJlw1L-85">
          <mxGeometry relative="1" as="geometry" />
        </mxCell>
        <mxCell id="gG1rawxMJscciwoJlw1L-90" value="否" style="edgeStyle=orthogonalEdgeStyle;rounded=0;orthogonalLoop=1;jettySize=auto;html=1;" edge="1" parent="gG1rawxMJscciwoJlw1L-77" source="gG1rawxMJscciwoJlw1L-81" target="gG1rawxMJscciwoJlw1L-89">
          <mxGeometry relative="1" as="geometry" />
        </mxCell>
        <mxCell id="gG1rawxMJscciwoJlw1L-81" value="检查待上线集群灰度版本是否改变" style="strokeWidth=2;html=1;shape=mxgraph.flowchart.decision;whiteSpace=wrap;fillColor=#ffff88;strokeColor=#36393d;" vertex="1" parent="gG1rawxMJscciwoJlw1L-77">
          <mxGeometry x="162" y="130" width="85" height="80" as="geometry" />
        </mxCell>
        <mxCell id="gG1rawxMJscciwoJlw1L-88" style="edgeStyle=orthogonalEdgeStyle;rounded=0;orthogonalLoop=1;jettySize=auto;html=1;" edge="1" parent="gG1rawxMJscciwoJlw1L-77" source="gG1rawxMJscciwoJlw1L-85" target="gG1rawxMJscciwoJlw1L-87">
          <mxGeometry relative="1" as="geometry" />
        </mxCell>
        <mxCell id="gG1rawxMJscciwoJlw1L-85" value="标记工单手动关闭" style="rounded=1;whiteSpace=wrap;html=1;fillColor=none;gradientColor=none;" vertex="1" parent="gG1rawxMJscciwoJlw1L-77">
          <mxGeometry x="11" y="152.5" width="115" height="45" as="geometry" />
        </mxCell>
        <mxCell id="gG1rawxMJscciwoJlw1L-87" value="钉钉通知工单提交人" style="rounded=1;whiteSpace=wrap;html=1;fillColor=none;gradientColor=none;" vertex="1" parent="gG1rawxMJscciwoJlw1L-77">
          <mxGeometry x="11" y="238" width="115" height="45" as="geometry" />
        </mxCell>
        <mxCell id="gG1rawxMJscciwoJlw1L-91" value="否" style="edgeStyle=orthogonalEdgeStyle;rounded=0;orthogonalLoop=1;jettySize=auto;html=1;entryX=1;entryY=0.5;entryDx=0;entryDy=0;exitX=0.5;exitY=0;exitDx=0;exitDy=0;exitPerimeter=0;" edge="1" parent="gG1rawxMJscciwoJlw1L-77" source="gG1rawxMJscciwoJlw1L-89" target="gG1rawxMJscciwoJlw1L-80">
          <mxGeometry relative="1" as="geometry">
            <mxPoint x="258.99999999999545" y="40" as="targetPoint" />
          </mxGeometry>
        </mxCell>
        <mxCell id="gG1rawxMJscciwoJlw1L-93" style="edgeStyle=orthogonalEdgeStyle;rounded=0;orthogonalLoop=1;jettySize=auto;html=1;entryX=0.5;entryY=0;entryDx=0;entryDy=0;" edge="1" parent="gG1rawxMJscciwoJlw1L-77" source="gG1rawxMJscciwoJlw1L-89" target="gG1rawxMJscciwoJlw1L-92">
          <mxGeometry relative="1" as="geometry" />
        </mxCell>
        <mxCell id="gG1rawxMJscciwoJlw1L-89" value="工单是否&lt;br&gt;可执行" style="strokeWidth=2;html=1;shape=mxgraph.flowchart.decision;whiteSpace=wrap;fillColor=#ffff88;strokeColor=#36393d;" vertex="1" parent="gG1rawxMJscciwoJlw1L-77">
          <mxGeometry x="287" y="130" width="85" height="80" as="geometry" />
        </mxCell>
        <mxCell id="gG1rawxMJscciwoJlw1L-96" style="edgeStyle=orthogonalEdgeStyle;rounded=0;orthogonalLoop=1;jettySize=auto;html=1;entryX=0.5;entryY=0;entryDx=0;entryDy=0;" edge="1" parent="gG1rawxMJscciwoJlw1L-77" source="gG1rawxMJscciwoJlw1L-92" target="gG1rawxMJscciwoJlw1L-94">
          <mxGeometry relative="1" as="geometry" />
        </mxCell>
        <mxCell id="gG1rawxMJscciwoJlw1L-92" value="记录线上集群版本" style="rounded=1;whiteSpace=wrap;html=1;fillColor=none;gradientColor=none;" vertex="1" parent="gG1rawxMJscciwoJlw1L-77">
          <mxGeometry x="272" y="240" width="115" height="50" as="geometry" />
        </mxCell>
        <mxCell id="gG1rawxMJscciwoJlw1L-94" value="切换路由" style="rounded=1;whiteSpace=wrap;html=1;fillColor=none;gradientColor=none;" vertex="1" parent="gG1rawxMJscciwoJlw1L-77">
          <mxGeometry x="272" y="315" width="115" height="45" as="geometry" />
        </mxCell>
        <mxCell id="gG1rawxMJscciwoJlw1L-219" style="edgeStyle=orthogonalEdgeStyle;rounded=0;orthogonalLoop=1;jettySize=auto;html=1;entryX=0;entryY=0.5;entryDx=0;entryDy=0;endArrow=open;endFill=0;" edge="1" parent="gG1rawxMJscciwoJlw1L-77" source="gG1rawxMJscciwoJlw1L-97">
          <mxGeometry relative="1" as="geometry">
            <mxPoint x="149.0000000000041" y="40" as="targetPoint" />
            <Array as="points">
              <mxPoint x="-3" y="337" />
              <mxPoint x="-3" y="40" />
            </Array>
          </mxGeometry>
        </mxCell>
        <mxCell id="gG1rawxMJscciwoJlw1L-97" value="更新待上线工单&lt;br&gt;状态（DB）" style="rounded=1;whiteSpace=wrap;html=1;fillColor=none;gradientColor=none;" vertex="1" parent="gG1rawxMJscciwoJlw1L-77">
          <mxGeometry x="11" y="315" width="115" height="45" as="geometry" />
        </mxCell>
        <mxCell id="gG1rawxMJscciwoJlw1L-98" style="edgeStyle=orthogonalEdgeStyle;rounded=0;orthogonalLoop=1;jettySize=auto;html=1;" edge="1" parent="gG1rawxMJscciwoJlw1L-77" source="gG1rawxMJscciwoJlw1L-87" target="gG1rawxMJscciwoJlw1L-97">
          <mxGeometry relative="1" as="geometry" />
        </mxCell>
        <mxCell id="gG1rawxMJscciwoJlw1L-99" style="edgeStyle=orthogonalEdgeStyle;rounded=0;orthogonalLoop=1;jettySize=auto;html=1;entryX=1;entryY=0.5;entryDx=0;entryDy=0;" edge="1" parent="gG1rawxMJscciwoJlw1L-77" source="gG1rawxMJscciwoJlw1L-94" target="gG1rawxMJscciwoJlw1L-97">
          <mxGeometry relative="1" as="geometry" />
        </mxCell>
        <mxCell id="gG1rawxMJscciwoJlw1L-102" style="swimlane;startSize=20;horizontal=0;fillColor=none;gradientColor=none;swimlaneLine=0;" vertex="1" parent="-kGAtnwoqszsTnGILX-w-119">
          <mxGeometry y="2990" width="390" height="230" as="geometry" />
        </mxCell>
        <mxCell id="gG1rawxMJscciwoJlw1L-126" style="swimlane;startSize=20;horizontal=0;fillColor=none;gradientColor=none;swimlaneLine=0;" vertex="1" parent="-kGAtnwoqszsTnGILX-w-119">
          <mxGeometry y="3220" width="390" height="230" as="geometry" />
        </mxCell>
        <mxCell id="gG1rawxMJscciwoJlw1L-144" style="swimlane;startSize=20;horizontal=0;fillColor=none;gradientColor=none;swimlaneLine=0;" vertex="1" parent="-kGAtnwoqszsTnGILX-w-119">
          <mxGeometry y="3450" width="390" height="570" as="geometry" />
        </mxCell>
        <mxCell id="gG1rawxMJscciwoJlw1L-215" style="edgeStyle=orthogonalEdgeStyle;rounded=0;orthogonalLoop=1;jettySize=auto;html=1;entryX=0.5;entryY=0;entryDx=0;entryDy=0;endArrow=open;endFill=0;" edge="1" parent="gG1rawxMJscciwoJlw1L-144" source="gG1rawxMJscciwoJlw1L-147" target="gG1rawxMJscciwoJlw1L-151">
          <mxGeometry relative="1" as="geometry" />
        </mxCell>
        <mxCell id="gG1rawxMJscciwoJlw1L-147" value="服务定时调度待执行的上线回滚工单" style="ellipse;whiteSpace=wrap;html=1;fillColor=#cdeb8b;strokeColor=#36393d;" vertex="1" parent="gG1rawxMJscciwoJlw1L-144">
          <mxGeometry x="135" y="20" width="110" height="50" as="geometry" />
        </mxCell>
        <mxCell id="gG1rawxMJscciwoJlw1L-155" value="是" style="edgeStyle=orthogonalEdgeStyle;rounded=0;orthogonalLoop=1;jettySize=auto;html=1;entryX=0.5;entryY=0;entryDx=0;entryDy=0;" edge="1" parent="gG1rawxMJscciwoJlw1L-144" source="gG1rawxMJscciwoJlw1L-151" target="gG1rawxMJscciwoJlw1L-153">
          <mxGeometry relative="1" as="geometry">
            <mxPoint x="115" y="150" as="targetPoint" />
          </mxGeometry>
        </mxCell>
        <mxCell id="gG1rawxMJscciwoJlw1L-156" value="否" style="edgeStyle=orthogonalEdgeStyle;rounded=0;orthogonalLoop=1;jettySize=auto;html=1;entryX=0;entryY=0.5;entryDx=0;entryDy=0;" edge="1" parent="gG1rawxMJscciwoJlw1L-144" source="gG1rawxMJscciwoJlw1L-151" target="gG1rawxMJscciwoJlw1L-154">
          <mxGeometry relative="1" as="geometry" />
        </mxCell>
        <mxCell id="gG1rawxMJscciwoJlw1L-151" value="灰度集群版本是否一致" style="rhombus;whiteSpace=wrap;html=1;fillColor=#ffff88;strokeColor=#36393d;" vertex="1" parent="gG1rawxMJscciwoJlw1L-144">
          <mxGeometry x="150" y="110" width="80" height="80" as="geometry" />
        </mxCell>
        <mxCell id="gG1rawxMJscciwoJlw1L-153" value="切换路由" style="rounded=1;whiteSpace=wrap;html=1;fillColor=none;gradientColor=none;" vertex="1" parent="gG1rawxMJscciwoJlw1L-144">
          <mxGeometry x="30" y="218" width="115" height="45" as="geometry" />
        </mxCell>
        <mxCell id="gG1rawxMJscciwoJlw1L-154" value="下发发版任务到SETS表" style="rounded=1;whiteSpace=wrap;html=1;fillColor=none;gradientColor=none;" vertex="1" parent="gG1rawxMJscciwoJlw1L-144">
          <mxGeometry x="252.5" y="127.5" width="115" height="45" as="geometry" />
        </mxCell>
        <mxCell id="gG1rawxMJscciwoJlw1L-208" style="edgeStyle=orthogonalEdgeStyle;rounded=0;orthogonalLoop=1;jettySize=auto;html=1;dashed=1;endArrow=open;endFill=0;" edge="1" parent="gG1rawxMJscciwoJlw1L-144" source="gG1rawxMJscciwoJlw1L-158" target="gG1rawxMJscciwoJlw1L-159">
          <mxGeometry relative="1" as="geometry" />
        </mxCell>
        <mxCell id="gG1rawxMJscciwoJlw1L-158" value="轮询发版任务状态" style="ellipse;;whiteSpace=wrap;html=1;fillColor=#cdeb8b;strokeColor=#36393d;" vertex="1" parent="gG1rawxMJscciwoJlw1L-144">
          <mxGeometry x="252.5" y="218" width="115" height="45" as="geometry" />
        </mxCell>
        <mxCell id="gG1rawxMJscciwoJlw1L-209" value="否" style="edgeStyle=orthogonalEdgeStyle;rounded=0;orthogonalLoop=1;jettySize=auto;html=1;entryX=0;entryY=0.5;entryDx=0;entryDy=0;endArrow=open;endFill=0;exitX=0;exitY=0.5;exitDx=0;exitDy=0;" edge="1" parent="gG1rawxMJscciwoJlw1L-144" source="gG1rawxMJscciwoJlw1L-159" target="gG1rawxMJscciwoJlw1L-158">
          <mxGeometry relative="1" as="geometry" />
        </mxCell>
        <mxCell id="gG1rawxMJscciwoJlw1L-211" value="是" style="edgeStyle=orthogonalEdgeStyle;rounded=0;orthogonalLoop=1;jettySize=auto;html=1;entryX=0.5;entryY=0;entryDx=0;entryDy=0;endArrow=open;endFill=0;" edge="1" parent="gG1rawxMJscciwoJlw1L-144" source="gG1rawxMJscciwoJlw1L-159" target="gG1rawxMJscciwoJlw1L-210">
          <mxGeometry relative="1" as="geometry" />
        </mxCell>
        <mxCell id="gG1rawxMJscciwoJlw1L-159" value="发版是否结束" style="rhombus;whiteSpace=wrap;html=1;fillColor=#ffff88;strokeColor=#36393d;" vertex="1" parent="gG1rawxMJscciwoJlw1L-144">
          <mxGeometry x="270" y="300" width="80" height="80" as="geometry" />
        </mxCell>
        <mxCell id="gG1rawxMJscciwoJlw1L-223" style="edgeStyle=orthogonalEdgeStyle;rounded=0;orthogonalLoop=1;jettySize=auto;html=1;entryX=0;entryY=0.5;entryDx=0;entryDy=0;endArrow=open;endFill=0;" edge="1" parent="gG1rawxMJscciwoJlw1L-144" source="gG1rawxMJscciwoJlw1L-210" target="gG1rawxMJscciwoJlw1L-147">
          <mxGeometry relative="1" as="geometry">
            <Array as="points">
              <mxPoint x="10" y="453" />
              <mxPoint x="10" y="45" />
            </Array>
          </mxGeometry>
        </mxCell>
        <mxCell id="gG1rawxMJscciwoJlw1L-210" value="标记工单回滚成功或失败" style="rounded=1;whiteSpace=wrap;html=1;fillColor=none;gradientColor=none;" vertex="1" parent="gG1rawxMJscciwoJlw1L-144">
          <mxGeometry x="252.5" y="430" width="115" height="45" as="geometry" />
        </mxCell>
        <mxCell id="-kGAtnwoqszsTnGILX-w-147" value="工单系统-文件服务（Hamal）" style="swimlane;childLayout=stackLayout;resizeParent=1;resizeParentMax=0;horizontal=1;startSize=20;horizontalStack=0;fillColor=none;gradientColor=none;fontSize=17;" parent="1" vertex="1">
          <mxGeometry x="1140" y="70" width="390" height="4020" as="geometry" />
        </mxCell>
        <mxCell id="-kGAtnwoqszsTnGILX-w-148" value="" style="swimlane;startSize=20;horizontal=0;fillColor=none;gradientColor=none;flipH=0;direction=east;swimlaneLine=0;" parent="-kGAtnwoqszsTnGILX-w-147" vertex="1">
          <mxGeometry y="20" width="390" height="260" as="geometry">
            <mxRectangle y="20" width="370" height="40" as="alternateBounds" />
          </mxGeometry>
        </mxCell>
        <mxCell id="-kGAtnwoqszsTnGILX-w-149" value="" style="swimlane;startSize=20;horizontal=0;fillColor=none;gradientColor=none;swimlaneLine=0;" parent="-kGAtnwoqszsTnGILX-w-147" vertex="1">
          <mxGeometry y="280" width="390" height="320" as="geometry" />
        </mxCell>
        <mxCell id="-kGAtnwoqszsTnGILX-w-150" value="" style="swimlane;startSize=20;horizontal=0;fillColor=none;gradientColor=none;swimlaneLine=0;" parent="-kGAtnwoqszsTnGILX-w-147" vertex="1">
          <mxGeometry y="600" width="390" height="670" as="geometry" />
        </mxCell>
        <mxCell id="-kGAtnwoqszsTnGILX-w-215" style="edgeStyle=orthogonalEdgeStyle;rounded=0;orthogonalLoop=1;jettySize=auto;html=1;entryX=0;entryY=0.5;entryDx=0;entryDy=0;" parent="-kGAtnwoqszsTnGILX-w-150" source="-kGAtnwoqszsTnGILX-w-163" target="-kGAtnwoqszsTnGILX-w-166" edge="1">
          <mxGeometry relative="1" as="geometry" />
        </mxCell>
        <mxCell id="-kGAtnwoqszsTnGILX-w-163" value="文件服务定时调度下发的文件包构建任务" style="ellipse;whiteSpace=wrap;html=1;fillColor=#cdeb8b;strokeColor=#36393d;" parent="-kGAtnwoqszsTnGILX-w-150" vertex="1">
          <mxGeometry x="20" y="40" width="110" height="50" as="geometry" />
        </mxCell>
        <mxCell id="-kGAtnwoqszsTnGILX-w-180" value="是" style="edgeStyle=orthogonalEdgeStyle;rounded=0;orthogonalLoop=1;jettySize=auto;html=1;entryX=0;entryY=0.5;entryDx=0;entryDy=0;" parent="-kGAtnwoqszsTnGILX-w-150" source="-kGAtnwoqszsTnGILX-w-166" target="-kGAtnwoqszsTnGILX-w-173" edge="1">
          <mxGeometry relative="1" as="geometry" />
        </mxCell>
        <mxCell id="-kGAtnwoqszsTnGILX-w-213" style="edgeStyle=orthogonalEdgeStyle;rounded=0;orthogonalLoop=1;jettySize=auto;html=1;entryX=0.5;entryY=0;entryDx=0;entryDy=0;exitX=0.5;exitY=0;exitDx=0;exitDy=0;" parent="-kGAtnwoqszsTnGILX-w-150" source="-kGAtnwoqszsTnGILX-w-166" target="-kGAtnwoqszsTnGILX-w-163" edge="1">
          <mxGeometry relative="1" as="geometry">
            <Array as="points">
              <mxPoint x="195" y="10" />
              <mxPoint x="75" y="10" />
            </Array>
          </mxGeometry>
        </mxCell>
        <mxCell id="-kGAtnwoqszsTnGILX-w-214" value="否" style="edgeLabel;html=1;align=center;verticalAlign=middle;resizable=0;points=[];" parent="-kGAtnwoqszsTnGILX-w-213" vertex="1" connectable="0">
          <mxGeometry x="0.0842" y="1" relative="1" as="geometry">
            <mxPoint as="offset" />
          </mxGeometry>
        </mxCell>
        <mxCell id="-kGAtnwoqszsTnGILX-w-166" value="是否有新下发的文件包构建任务" style="rhombus;whiteSpace=wrap;html=1;strokeColor=default;strokeWidth=1;fillColor=none;gradientColor=none;" parent="-kGAtnwoqszsTnGILX-w-150" vertex="1">
          <mxGeometry x="155" y="25" width="80" height="80" as="geometry" />
        </mxCell>
        <mxCell id="-kGAtnwoqszsTnGILX-w-168" value="更新下发的构建任务的状态" style="rounded=1;whiteSpace=wrap;html=1;fillColor=none;gradientColor=none;" parent="-kGAtnwoqszsTnGILX-w-150" vertex="1">
          <mxGeometry x="30" y="129" width="110" height="50" as="geometry" />
        </mxCell>
        <mxCell id="-kGAtnwoqszsTnGILX-w-181" style="edgeStyle=orthogonalEdgeStyle;rounded=0;orthogonalLoop=1;jettySize=auto;html=1;exitX=0.5;exitY=1;exitDx=0;exitDy=0;entryX=1;entryY=0.5;entryDx=0;entryDy=0;" parent="-kGAtnwoqszsTnGILX-w-150" source="-kGAtnwoqszsTnGILX-w-173" target="-kGAtnwoqszsTnGILX-w-168" edge="1">
          <mxGeometry relative="1" as="geometry">
            <mxPoint x="260" y="160" as="targetPoint" />
            <Array as="points">
              <mxPoint x="325" y="154" />
            </Array>
          </mxGeometry>
        </mxCell>
        <mxCell id="-kGAtnwoqszsTnGILX-w-173" value="构建文件包" style="rounded=1;whiteSpace=wrap;html=1;fillColor=none;gradientColor=none;" parent="-kGAtnwoqszsTnGILX-w-150" vertex="1">
          <mxGeometry x="270" y="40" width="110" height="50" as="geometry" />
        </mxCell>
        <mxCell id="-kGAtnwoqszsTnGILX-w-161" style="swimlane;startSize=20;horizontal=0;fillColor=none;gradientColor=none;swimlaneLine=0;" parent="-kGAtnwoqszsTnGILX-w-147" vertex="1">
          <mxGeometry y="1270" width="390" height="570" as="geometry" />
        </mxCell>
        <mxCell id="gG1rawxMJscciwoJlw1L-2" style="swimlane;startSize=20;horizontal=0;fillColor=none;gradientColor=none;swimlaneLine=0;" vertex="1" parent="-kGAtnwoqszsTnGILX-w-147">
          <mxGeometry y="1840" width="390" height="380" as="geometry" />
        </mxCell>
        <mxCell id="gG1rawxMJscciwoJlw1L-7" style="swimlane;startSize=20;horizontal=0;fillColor=none;gradientColor=none;swimlaneLine=0;" vertex="1" parent="-kGAtnwoqszsTnGILX-w-147">
          <mxGeometry y="2220" width="390" height="350" as="geometry" />
        </mxCell>
        <mxCell id="gG1rawxMJscciwoJlw1L-78" style="swimlane;startSize=20;horizontal=0;fillColor=none;gradientColor=none;swimlaneLine=0;" vertex="1" parent="-kGAtnwoqszsTnGILX-w-147">
          <mxGeometry y="2570" width="390" height="420" as="geometry" />
        </mxCell>
        <mxCell id="gG1rawxMJscciwoJlw1L-103" style="swimlane;startSize=20;horizontal=0;fillColor=none;gradientColor=none;swimlaneLine=0;" vertex="1" parent="-kGAtnwoqszsTnGILX-w-147">
          <mxGeometry y="2990" width="390" height="230" as="geometry" />
        </mxCell>
        <mxCell id="gG1rawxMJscciwoJlw1L-127" style="swimlane;startSize=20;horizontal=0;fillColor=none;gradientColor=none;swimlaneLine=0;" vertex="1" parent="-kGAtnwoqszsTnGILX-w-147">
          <mxGeometry y="3220" width="390" height="230" as="geometry" />
        </mxCell>
        <mxCell id="gG1rawxMJscciwoJlw1L-145" style="swimlane;startSize=20;horizontal=0;fillColor=none;gradientColor=none;swimlaneLine=0;" vertex="1" parent="-kGAtnwoqszsTnGILX-w-147">
          <mxGeometry y="3450" width="390" height="570" as="geometry" />
        </mxCell>
        <mxCell id="-kGAtnwoqszsTnGILX-w-198" value="发版代理服务（malionis）" style="swimlane;childLayout=stackLayout;resizeParent=1;resizeParentMax=0;horizontal=1;startSize=20;horizontalStack=0;fillColor=none;gradientColor=none;fontSize=17;" parent="1" vertex="1">
          <mxGeometry x="1530" y="70" width="390" height="4020" as="geometry" />
        </mxCell>
        <mxCell id="-kGAtnwoqszsTnGILX-w-199" value="" style="swimlane;startSize=20;horizontal=0;fillColor=none;gradientColor=none;flipH=0;direction=east;swimlaneLine=0;" parent="-kGAtnwoqszsTnGILX-w-198" vertex="1">
          <mxGeometry y="20" width="390" height="260" as="geometry">
            <mxRectangle y="20" width="370" height="40" as="alternateBounds" />
          </mxGeometry>
        </mxCell>
        <mxCell id="-kGAtnwoqszsTnGILX-w-200" value="" style="swimlane;startSize=20;horizontal=0;fillColor=none;gradientColor=none;swimlaneLine=0;" parent="-kGAtnwoqszsTnGILX-w-198" vertex="1">
          <mxGeometry y="280" width="390" height="320" as="geometry" />
        </mxCell>
        <mxCell id="-kGAtnwoqszsTnGILX-w-201" value="" style="swimlane;startSize=20;horizontal=0;fillColor=none;gradientColor=none;swimlaneLine=0;" parent="-kGAtnwoqszsTnGILX-w-198" vertex="1">
          <mxGeometry y="600" width="390" height="670" as="geometry" />
        </mxCell>
        <mxCell id="gG1rawxMJscciwoJlw1L-189" style="edgeStyle=orthogonalEdgeStyle;rounded=0;orthogonalLoop=1;jettySize=auto;html=1;entryX=0;entryY=0.5;entryDx=0;entryDy=0;endArrow=open;endFill=0;" edge="1" parent="-kGAtnwoqszsTnGILX-w-201" source="-kGAtnwoqszsTnGILX-w-211" target="-kGAtnwoqszsTnGILX-w-195">
          <mxGeometry relative="1" as="geometry" />
        </mxCell>
        <mxCell id="-kGAtnwoqszsTnGILX-w-211" value="定时调度发版任务" style="ellipse;whiteSpace=wrap;html=1;fillColor=#cdeb8b;strokeColor=#36393d;" parent="-kGAtnwoqszsTnGILX-w-201" vertex="1">
          <mxGeometry x="50" y="305" width="110" height="60" as="geometry" />
        </mxCell>
        <mxCell id="-kGAtnwoqszsTnGILX-w-232" style="edgeStyle=orthogonalEdgeStyle;rounded=0;orthogonalLoop=1;jettySize=auto;html=1;entryX=0.5;entryY=0;entryDx=0;entryDy=0;startArrow=none;startFill=0;endArrow=classic;endFill=1;" parent="-kGAtnwoqszsTnGILX-w-201" source="-kGAtnwoqszsTnGILX-w-222" target="-kGAtnwoqszsTnGILX-w-225" edge="1">
          <mxGeometry relative="1" as="geometry" />
        </mxCell>
        <mxCell id="-kGAtnwoqszsTnGILX-w-222" value="执行发版任务" style="rounded=1;whiteSpace=wrap;html=1;fillColor=none;gradientColor=none;" parent="-kGAtnwoqszsTnGILX-w-201" vertex="1">
          <mxGeometry x="250" y="398" width="110" height="50" as="geometry" />
        </mxCell>
        <mxCell id="-kGAtnwoqszsTnGILX-w-235" style="edgeStyle=orthogonalEdgeStyle;rounded=0;orthogonalLoop=1;jettySize=auto;html=1;entryX=0.5;entryY=1;entryDx=0;entryDy=0;startArrow=none;startFill=0;endArrow=classic;endFill=1;" parent="-kGAtnwoqszsTnGILX-w-201" source="-kGAtnwoqszsTnGILX-w-225" target="-kGAtnwoqszsTnGILX-w-233" edge="1">
          <mxGeometry relative="1" as="geometry" />
        </mxCell>
        <mxCell id="-kGAtnwoqszsTnGILX-w-225" value="记录发版日志" style="rounded=1;whiteSpace=wrap;html=1;fillColor=none;gradientColor=none;" parent="-kGAtnwoqszsTnGILX-w-201" vertex="1">
          <mxGeometry x="250" y="500" width="110" height="50" as="geometry" />
        </mxCell>
        <mxCell id="-kGAtnwoqszsTnGILX-w-233" value="更新SETS表中的发版任务状态" style="rounded=1;whiteSpace=wrap;html=1;fillColor=none;gradientColor=none;" parent="-kGAtnwoqszsTnGILX-w-201" vertex="1">
          <mxGeometry x="40" y="400" width="110" height="50" as="geometry" />
        </mxCell>
        <mxCell id="gG1rawxMJscciwoJlw1L-191" style="edgeStyle=orthogonalEdgeStyle;rounded=0;orthogonalLoop=1;jettySize=auto;html=1;entryX=0.5;entryY=0;entryDx=0;entryDy=0;endArrow=open;endFill=0;" edge="1" parent="-kGAtnwoqszsTnGILX-w-201" source="-kGAtnwoqszsTnGILX-w-195" target="-kGAtnwoqszsTnGILX-w-222">
          <mxGeometry relative="1" as="geometry" />
        </mxCell>
        <mxCell id="-kGAtnwoqszsTnGILX-w-195" value="获取SETS表发版任务" style="rounded=1;whiteSpace=wrap;html=1;fillColor=none;gradientColor=none;" parent="-kGAtnwoqszsTnGILX-w-201" vertex="1">
          <mxGeometry x="250" y="310" width="110" height="50" as="geometry" />
        </mxCell>
        <mxCell id="gG1rawxMJscciwoJlw1L-224" style="edgeStyle=orthogonalEdgeStyle;rounded=0;orthogonalLoop=1;jettySize=auto;html=1;entryX=0.411;entryY=0.981;entryDx=0;entryDy=0;entryPerimeter=0;endArrow=open;endFill=0;" edge="1" parent="-kGAtnwoqszsTnGILX-w-201" source="gG1rawxMJscciwoJlw1L-194" target="-kGAtnwoqszsTnGILX-w-211">
          <mxGeometry relative="1" as="geometry" />
        </mxCell>
        <mxCell id="gG1rawxMJscciwoJlw1L-194" value="更新SETS表中的发版任务状态" style="rounded=1;whiteSpace=wrap;html=1;fillColor=none;gradientColor=none;" vertex="1" parent="-kGAtnwoqszsTnGILX-w-201">
          <mxGeometry x="40" y="400" width="110" height="50" as="geometry" />
        </mxCell>
        <mxCell id="-kGAtnwoqszsTnGILX-w-210" style="swimlane;startSize=20;horizontal=0;fillColor=none;gradientColor=none;swimlaneLine=0;" parent="-kGAtnwoqszsTnGILX-w-198" vertex="1">
          <mxGeometry y="1270" width="390" height="570" as="geometry" />
        </mxCell>
        <mxCell id="gG1rawxMJscciwoJlw1L-1" style="swimlane;startSize=20;horizontal=0;fillColor=none;gradientColor=none;swimlaneLine=0;" vertex="1" parent="-kGAtnwoqszsTnGILX-w-198">
          <mxGeometry y="1840" width="390" height="380" as="geometry" />
        </mxCell>
        <mxCell id="gG1rawxMJscciwoJlw1L-8" style="swimlane;startSize=20;horizontal=0;fillColor=none;gradientColor=none;swimlaneLine=0;" vertex="1" parent="-kGAtnwoqszsTnGILX-w-198">
          <mxGeometry y="2220" width="390" height="350" as="geometry" />
        </mxCell>
        <mxCell id="gG1rawxMJscciwoJlw1L-79" style="swimlane;startSize=20;horizontal=0;fillColor=none;gradientColor=none;swimlaneLine=0;" vertex="1" parent="-kGAtnwoqszsTnGILX-w-198">
          <mxGeometry y="2570" width="390" height="420" as="geometry" />
        </mxCell>
        <mxCell id="gG1rawxMJscciwoJlw1L-104" style="swimlane;startSize=20;horizontal=0;fillColor=none;gradientColor=none;swimlaneLine=0;" vertex="1" parent="-kGAtnwoqszsTnGILX-w-198">
          <mxGeometry y="2990" width="390" height="230" as="geometry" />
        </mxCell>
        <mxCell id="gG1rawxMJscciwoJlw1L-128" style="swimlane;startSize=20;horizontal=0;fillColor=none;gradientColor=none;swimlaneLine=0;" vertex="1" parent="-kGAtnwoqszsTnGILX-w-198">
          <mxGeometry y="3220" width="390" height="230" as="geometry" />
        </mxCell>
        <mxCell id="gG1rawxMJscciwoJlw1L-146" style="swimlane;startSize=20;horizontal=0;fillColor=none;gradientColor=none;swimlaneLine=0;" vertex="1" parent="-kGAtnwoqszsTnGILX-w-198">
          <mxGeometry y="3450" width="390" height="570" as="geometry" />
        </mxCell>
        <mxCell id="gG1rawxMJscciwoJlw1L-196" value="定时调度发版任务" style="ellipse;whiteSpace=wrap;html=1;fillColor=#cdeb8b;strokeColor=#36393d;" vertex="1" parent="gG1rawxMJscciwoJlw1L-146">
          <mxGeometry x="30" y="120" width="110" height="60" as="geometry" />
        </mxCell>
        <mxCell id="gG1rawxMJscciwoJlw1L-198" value="执行发版任务" style="rounded=1;whiteSpace=wrap;html=1;fillColor=none;gradientColor=none;" vertex="1" parent="gG1rawxMJscciwoJlw1L-146">
          <mxGeometry x="230" y="213" width="110" height="50" as="geometry" />
        </mxCell>
        <mxCell id="gG1rawxMJscciwoJlw1L-200" value="记录发版日志" style="rounded=1;whiteSpace=wrap;html=1;fillColor=none;gradientColor=none;" vertex="1" parent="gG1rawxMJscciwoJlw1L-146">
          <mxGeometry x="230" y="315" width="110" height="50" as="geometry" />
        </mxCell>
        <mxCell id="gG1rawxMJscciwoJlw1L-197" style="edgeStyle=orthogonalEdgeStyle;rounded=0;orthogonalLoop=1;jettySize=auto;html=1;entryX=0.5;entryY=0;entryDx=0;entryDy=0;startArrow=none;startFill=0;endArrow=classic;endFill=1;" edge="1" parent="gG1rawxMJscciwoJlw1L-146" source="gG1rawxMJscciwoJlw1L-198" target="gG1rawxMJscciwoJlw1L-200">
          <mxGeometry relative="1" as="geometry" />
        </mxCell>
        <mxCell id="gG1rawxMJscciwoJlw1L-201" value="更新SETS表中的发版任务状态" style="rounded=1;whiteSpace=wrap;html=1;fillColor=none;gradientColor=none;" vertex="1" parent="gG1rawxMJscciwoJlw1L-146">
          <mxGeometry x="20" y="215" width="110" height="50" as="geometry" />
        </mxCell>
        <mxCell id="gG1rawxMJscciwoJlw1L-199" style="edgeStyle=orthogonalEdgeStyle;rounded=0;orthogonalLoop=1;jettySize=auto;html=1;entryX=0.5;entryY=1;entryDx=0;entryDy=0;startArrow=none;startFill=0;endArrow=classic;endFill=1;" edge="1" parent="gG1rawxMJscciwoJlw1L-146" source="gG1rawxMJscciwoJlw1L-200" target="gG1rawxMJscciwoJlw1L-201">
          <mxGeometry relative="1" as="geometry" />
        </mxCell>
        <mxCell id="gG1rawxMJscciwoJlw1L-202" style="edgeStyle=orthogonalEdgeStyle;rounded=0;orthogonalLoop=1;jettySize=auto;html=1;entryX=0.5;entryY=0;entryDx=0;entryDy=0;endArrow=open;endFill=0;" edge="1" parent="gG1rawxMJscciwoJlw1L-146" source="gG1rawxMJscciwoJlw1L-203" target="gG1rawxMJscciwoJlw1L-198">
          <mxGeometry relative="1" as="geometry" />
        </mxCell>
        <mxCell id="gG1rawxMJscciwoJlw1L-203" value="获取SETS表发版任务" style="rounded=1;whiteSpace=wrap;html=1;fillColor=none;gradientColor=none;" vertex="1" parent="gG1rawxMJscciwoJlw1L-146">
          <mxGeometry x="230" y="125" width="110" height="50" as="geometry" />
        </mxCell>
        <mxCell id="gG1rawxMJscciwoJlw1L-195" style="edgeStyle=orthogonalEdgeStyle;rounded=0;orthogonalLoop=1;jettySize=auto;html=1;entryX=0;entryY=0.5;entryDx=0;entryDy=0;endArrow=open;endFill=0;" edge="1" parent="gG1rawxMJscciwoJlw1L-146" source="gG1rawxMJscciwoJlw1L-196" target="gG1rawxMJscciwoJlw1L-203">
          <mxGeometry relative="1" as="geometry" />
        </mxCell>
        <mxCell id="gG1rawxMJscciwoJlw1L-204" value="定时调度发版任务" style="ellipse;whiteSpace=wrap;html=1;fillColor=#cdeb8b;strokeColor=#36393d;" vertex="1" parent="gG1rawxMJscciwoJlw1L-146">
          <mxGeometry x="30" y="120" width="110" height="60" as="geometry" />
        </mxCell>
        <mxCell id="gG1rawxMJscciwoJlw1L-225" style="edgeStyle=orthogonalEdgeStyle;rounded=0;orthogonalLoop=1;jettySize=auto;html=1;entryX=0.402;entryY=1.009;entryDx=0;entryDy=0;entryPerimeter=0;endArrow=open;endFill=0;" edge="1" parent="gG1rawxMJscciwoJlw1L-146" source="gG1rawxMJscciwoJlw1L-205" target="gG1rawxMJscciwoJlw1L-204">
          <mxGeometry relative="1" as="geometry" />
        </mxCell>
        <mxCell id="gG1rawxMJscciwoJlw1L-205" value="更新SETS表中的发版任务状态" style="rounded=1;whiteSpace=wrap;html=1;fillColor=none;gradientColor=none;" vertex="1" parent="gG1rawxMJscciwoJlw1L-146">
          <mxGeometry x="20" y="215" width="110" height="50" as="geometry" />
        </mxCell>
        <mxCell id="-kGAtnwoqszsTnGILX-w-212" style="edgeStyle=orthogonalEdgeStyle;rounded=0;orthogonalLoop=1;jettySize=auto;html=1;entryX=1;entryY=0.5;entryDx=0;entryDy=0;dashed=1;startArrow=classic;startFill=1;endArrow=none;endFill=0;" parent="1" source="-kGAtnwoqszsTnGILX-w-163" target="-kGAtnwoqszsTnGILX-w-142" edge="1">
          <mxGeometry relative="1" as="geometry" />
        </mxCell>
        <mxCell id="-kGAtnwoqszsTnGILX-w-227" style="edgeStyle=orthogonalEdgeStyle;rounded=0;orthogonalLoop=1;jettySize=auto;html=1;entryX=1;entryY=0.5;entryDx=0;entryDy=0;startArrow=none;startFill=0;endArrow=classic;endFill=1;dashed=1;" parent="1" source="-kGAtnwoqszsTnGILX-w-168" target="-kGAtnwoqszsTnGILX-w-189" edge="1">
          <mxGeometry relative="1" as="geometry" />
        </mxCell>
        <mxCell id="-kGAtnwoqszsTnGILX-w-263" value="是" style="edgeStyle=orthogonalEdgeStyle;rounded=0;orthogonalLoop=1;jettySize=auto;html=1;entryX=0;entryY=0.5;entryDx=0;entryDy=0;fontSize=16;startArrow=none;startFill=0;endArrow=classic;endFill=1;" parent="1" source="-kGAtnwoqszsTnGILX-w-249" target="-kGAtnwoqszsTnGILX-w-264" edge="1">
          <mxGeometry relative="1" as="geometry" />
        </mxCell>
        <mxCell id="-kGAtnwoqszsTnGILX-w-280" value="否" style="edgeStyle=orthogonalEdgeStyle;rounded=0;orthogonalLoop=1;jettySize=auto;html=1;entryX=0;entryY=0.5;entryDx=0;entryDy=0;fontSize=16;startArrow=none;startFill=0;endArrow=classic;endFill=1;" parent="1" source="-kGAtnwoqszsTnGILX-w-267" target="-kGAtnwoqszsTnGILX-w-279" edge="1">
          <mxGeometry relative="1" as="geometry">
            <Array as="points">
              <mxPoint x="247" y="1760" />
              <mxPoint x="420" y="1760" />
            </Array>
          </mxGeometry>
        </mxCell>
        <mxCell id="gG1rawxMJscciwoJlw1L-17" value="是" style="edgeStyle=orthogonalEdgeStyle;rounded=0;orthogonalLoop=1;jettySize=auto;html=1;entryX=0.5;entryY=0;entryDx=0;entryDy=0;" edge="1" parent="1" source="-kGAtnwoqszsTnGILX-w-262" target="-kGAtnwoqszsTnGILX-w-267">
          <mxGeometry relative="1" as="geometry">
            <mxPoint x="290" y="1680" as="targetPoint" />
          </mxGeometry>
        </mxCell>
        <mxCell id="gG1rawxMJscciwoJlw1L-18" style="edgeStyle=orthogonalEdgeStyle;rounded=0;orthogonalLoop=1;jettySize=auto;html=1;entryX=0.5;entryY=1;entryDx=0;entryDy=0;exitX=0;exitY=0.5;exitDx=0;exitDy=0;" edge="1" parent="1" source="-kGAtnwoqszsTnGILX-w-249" target="-kGAtnwoqszsTnGILX-w-279">
          <mxGeometry relative="1" as="geometry">
            <Array as="points">
              <mxPoint x="180" y="1480" />
              <mxPoint x="180" y="1810" />
              <mxPoint x="480" y="1810" />
            </Array>
          </mxGeometry>
        </mxCell>
        <mxCell id="gG1rawxMJscciwoJlw1L-20" value="是" style="edgeStyle=orthogonalEdgeStyle;rounded=0;orthogonalLoop=1;jettySize=auto;html=1;entryX=0;entryY=0.5;entryDx=0;entryDy=0;" edge="1" parent="1" source="-kGAtnwoqszsTnGILX-w-267" target="gG1rawxMJscciwoJlw1L-12">
          <mxGeometry relative="1" as="geometry" />
        </mxCell>
        <mxCell id="gG1rawxMJscciwoJlw1L-26" style="edgeStyle=orthogonalEdgeStyle;rounded=0;orthogonalLoop=1;jettySize=auto;html=1;entryX=1;entryY=0.5;entryDx=0;entryDy=0;entryPerimeter=0;" edge="1" parent="1" source="gG1rawxMJscciwoJlw1L-22" target="-kGAtnwoqszsTnGILX-w-257">
          <mxGeometry relative="1" as="geometry">
            <Array as="points">
              <mxPoint x="660" y="1848" />
            </Array>
          </mxGeometry>
        </mxCell>
        <mxCell id="gG1rawxMJscciwoJlw1L-32" style="edgeStyle=orthogonalEdgeStyle;rounded=0;orthogonalLoop=1;jettySize=auto;html=1;entryX=0;entryY=0.5;entryDx=0;entryDy=0;" edge="1" parent="1" source="gG1rawxMJscciwoJlw1L-29" target="gG1rawxMJscciwoJlw1L-31">
          <mxGeometry relative="1" as="geometry" />
        </mxCell>
        <mxCell id="gG1rawxMJscciwoJlw1L-40" style="edgeStyle=orthogonalEdgeStyle;rounded=0;orthogonalLoop=1;jettySize=auto;html=1;" edge="1" parent="1" source="gG1rawxMJscciwoJlw1L-33" target="gG1rawxMJscciwoJlw1L-39">
          <mxGeometry relative="1" as="geometry" />
        </mxCell>
        <mxCell id="gG1rawxMJscciwoJlw1L-41" style="edgeStyle=orthogonalEdgeStyle;rounded=0;orthogonalLoop=1;jettySize=auto;html=1;entryX=0;entryY=0.5;entryDx=0;entryDy=0;" edge="1" parent="1" source="gG1rawxMJscciwoJlw1L-39" target="gG1rawxMJscciwoJlw1L-34">
          <mxGeometry relative="1" as="geometry" />
        </mxCell>
        <mxCell id="gG1rawxMJscciwoJlw1L-52" style="edgeStyle=orthogonalEdgeStyle;rounded=0;orthogonalLoop=1;jettySize=auto;html=1;entryX=1;entryY=0.5;entryDx=0;entryDy=0;entryPerimeter=0;" edge="1" parent="1" source="gG1rawxMJscciwoJlw1L-35" target="gG1rawxMJscciwoJlw1L-42">
          <mxGeometry relative="1" as="geometry" />
        </mxCell>
        <mxCell id="gG1rawxMJscciwoJlw1L-61" value="是" style="edgeStyle=orthogonalEdgeStyle;rounded=0;orthogonalLoop=1;jettySize=auto;html=1;entryX=0;entryY=0.5;entryDx=0;entryDy=0;" edge="1" parent="1" source="gG1rawxMJscciwoJlw1L-54" target="gG1rawxMJscciwoJlw1L-58">
          <mxGeometry relative="1" as="geometry" />
        </mxCell>
        <mxCell id="gG1rawxMJscciwoJlw1L-62" value="否" style="edgeStyle=orthogonalEdgeStyle;rounded=0;orthogonalLoop=1;jettySize=auto;html=1;entryX=0;entryY=0.5;entryDx=0;entryDy=0;" edge="1" parent="1" source="gG1rawxMJscciwoJlw1L-54" target="gG1rawxMJscciwoJlw1L-60">
          <mxGeometry relative="1" as="geometry">
            <Array as="points">
              <mxPoint x="225" y="2520" />
            </Array>
          </mxGeometry>
        </mxCell>
        <mxCell id="gG1rawxMJscciwoJlw1L-65" style="edgeStyle=orthogonalEdgeStyle;rounded=0;orthogonalLoop=1;jettySize=auto;html=1;entryX=1;entryY=0.5;entryDx=0;entryDy=0;entryPerimeter=0;" edge="1" parent="1" source="gG1rawxMJscciwoJlw1L-63" target="gG1rawxMJscciwoJlw1L-64">
          <mxGeometry relative="1" as="geometry">
            <Array as="points">
              <mxPoint x="628" y="2585" />
            </Array>
          </mxGeometry>
        </mxCell>
        <mxCell id="gG1rawxMJscciwoJlw1L-105" style="edgeStyle=orthogonalEdgeStyle;rounded=0;orthogonalLoop=1;jettySize=auto;html=1;entryX=0.989;entryY=0.636;entryDx=0;entryDy=0;entryPerimeter=0;" edge="1" parent="1" source="-kGAtnwoqszsTnGILX-w-113" target="-kGAtnwoqszsTnGILX-w-111">
          <mxGeometry relative="1" as="geometry">
            <Array as="points">
              <mxPoint x="665" y="645" />
            </Array>
          </mxGeometry>
        </mxCell>
        <mxCell id="gG1rawxMJscciwoJlw1L-115" value="" style="edgeStyle=orthogonalEdgeStyle;rounded=0;orthogonalLoop=1;jettySize=auto;html=1;entryX=0.5;entryY=0;entryDx=0;entryDy=0;" edge="1" parent="1" source="gG1rawxMJscciwoJlw1L-107" target="gG1rawxMJscciwoJlw1L-114">
          <mxGeometry relative="1" as="geometry">
            <Array as="points">
              <mxPoint x="580" y="3090" />
            </Array>
          </mxGeometry>
        </mxCell>
        <mxCell id="gG1rawxMJscciwoJlw1L-118" style="edgeStyle=orthogonalEdgeStyle;rounded=0;orthogonalLoop=1;jettySize=auto;html=1;" edge="1" parent="1" source="gG1rawxMJscciwoJlw1L-108" target="gG1rawxMJscciwoJlw1L-117">
          <mxGeometry relative="1" as="geometry" />
        </mxCell>
        <mxCell id="gG1rawxMJscciwoJlw1L-122" value="否" style="edgeStyle=orthogonalEdgeStyle;rounded=0;orthogonalLoop=1;jettySize=auto;html=1;" edge="1" parent="1" source="gG1rawxMJscciwoJlw1L-114" target="gG1rawxMJscciwoJlw1L-119">
          <mxGeometry relative="1" as="geometry" />
        </mxCell>
        <mxCell id="gG1rawxMJscciwoJlw1L-137" value="是" style="edgeStyle=orthogonalEdgeStyle;rounded=0;orthogonalLoop=1;jettySize=auto;html=1;entryX=0;entryY=0.5;entryDx=0;entryDy=0;exitX=0.5;exitY=0;exitDx=0;exitDy=0;" edge="1" parent="1" source="gG1rawxMJscciwoJlw1L-131" target="gG1rawxMJscciwoJlw1L-133">
          <mxGeometry relative="1" as="geometry" />
        </mxCell>
        <mxCell id="gG1rawxMJscciwoJlw1L-138" value="否" style="edgeStyle=orthogonalEdgeStyle;rounded=0;orthogonalLoop=1;jettySize=auto;html=1;entryX=0;entryY=0.5;entryDx=0;entryDy=0;" edge="1" parent="1" source="gG1rawxMJscciwoJlw1L-131" target="gG1rawxMJscciwoJlw1L-134">
          <mxGeometry relative="1" as="geometry" />
        </mxCell>
        <mxCell id="gG1rawxMJscciwoJlw1L-141" style="edgeStyle=orthogonalEdgeStyle;rounded=0;orthogonalLoop=1;jettySize=auto;html=1;entryX=1;entryY=0.5;entryDx=0;entryDy=0;entryPerimeter=0;" edge="1" parent="1" source="gG1rawxMJscciwoJlw1L-135" target="gG1rawxMJscciwoJlw1L-130">
          <mxGeometry relative="1" as="geometry" />
        </mxCell>
        <mxCell id="gG1rawxMJscciwoJlw1L-175" style="edgeStyle=orthogonalEdgeStyle;rounded=0;orthogonalLoop=1;jettySize=auto;html=1;entryX=1;entryY=0.5;entryDx=0;entryDy=0;endArrow=open;endFill=0;dashed=1;" edge="1" parent="1" source="-kGAtnwoqszsTnGILX-w-233" target="-kGAtnwoqszsTnGILX-w-236">
          <mxGeometry relative="1" as="geometry" />
        </mxCell>
        <mxCell id="gG1rawxMJscciwoJlw1L-188" style="edgeStyle=orthogonalEdgeStyle;rounded=0;orthogonalLoop=1;jettySize=auto;html=1;dashed=1;endArrow=open;endFill=0;" edge="1" parent="1" source="gG1rawxMJscciwoJlw1L-186">
          <mxGeometry relative="1" as="geometry">
            <mxPoint x="1570" y="1005" as="targetPoint" />
          </mxGeometry>
        </mxCell>
        <mxCell id="gG1rawxMJscciwoJlw1L-206" style="edgeStyle=orthogonalEdgeStyle;rounded=0;orthogonalLoop=1;jettySize=auto;html=1;entryX=0;entryY=0.5;entryDx=0;entryDy=0;endArrow=open;endFill=0;dashed=1;" edge="1" parent="1" source="gG1rawxMJscciwoJlw1L-154" target="gG1rawxMJscciwoJlw1L-204">
          <mxGeometry relative="1" as="geometry" />
        </mxCell>
        <mxCell id="gG1rawxMJscciwoJlw1L-207" style="edgeStyle=orthogonalEdgeStyle;rounded=0;orthogonalLoop=1;jettySize=auto;html=1;entryX=1;entryY=0.5;entryDx=0;entryDy=0;dashed=1;endArrow=open;endFill=0;" edge="1" parent="1" source="gG1rawxMJscciwoJlw1L-205" target="gG1rawxMJscciwoJlw1L-158">
          <mxGeometry relative="1" as="geometry" />
        </mxCell>
      </root>
    </mxGraphModel>
  </diagram>
</mxfile>
